<?xml version="1.0" encoding="UTF-8"?><svg xmlns="http://www.w3.org/2000/svg" xmlns:xlink="http://www.w3.org/1999/xlink" height="1323.2" preserveAspectRatio="xMidYMid meet" version="1.0" viewBox="-11.4 -2.9 3371.5 1323.2" width="3371.5" zoomAndPan="magnify"><defs><clipPath id="a"><path d="M 134 1083 L 364 1083 L 364 1320.308594 L 134 1320.308594 Z M 134 1083"/></clipPath><clipPath id="b"><path d="M 3094 817 L 3360.089844 817 L 3360.089844 987 L 3094 987 Z M 3094 817"/></clipPath></defs><g><g><path d="M 1031.570312 66.660156 C 1031.570312 66.660156 1043.910156 79.769531 1046.988281 109.699219 C 1049.121094 130.449219 1040.820312 156 1043.46875 175.988281 C 1046.109375 195.980469 1043.910156 221.511719 1017.488281 223.269531 C 991.082031 225.03125 971.195312 205.660156 971.195312 205.660156 C 971.195312 205.660156 961.148438 103.980469 961.589844 101.78125 C 962.03125 99.578125 979.199219 72.730469 980.519531 71.851562 C 981.839844 70.96875 1031.570312 66.660156 1031.570312 66.660156" fill="#bc4445"/></g><g><path d="M 1037.03125 276.769531 C 1037.03125 276.769531 1064.808594 286.328125 1075.371094 299.101562 C 1085.941406 311.859375 1091.011719 341.246094 1101.570312 375.140625 C 1112.140625 409.035156 1119.179688 449.972656 1119.179688 449.972656 C 1119.179688 449.972656 1058.429688 398.394531 1054.03125 398.433594 C 1049.628906 398.472656 1039.949219 368.976562 1039.5 363.253906 C 1039.058594 357.53125 1029.378906 330.679688 1032.019531 315.269531 C 1034.660156 299.871094 1037.03125 276.769531 1037.03125 276.769531" fill="#5067a3"/></g><g><path d="M 1006.808594 87.601562 C 1017.351562 88 1025.890625 96.339844 1026.488281 106.871094 C 1028.410156 140.660156 1029.128906 209.191406 1003.851562 214.46875 C 979.171875 219.621094 931.59375 211.328125 929.953125 208.179688 C 928.308594 205.039062 931.828125 84.761719 931.828125 84.761719 L 1006.808594 87.601562" fill="#ff8c78"/></g><g><path d="M 1009.140625 177.03125 C 1011.230469 177.109375 1012.71875 179.210938 1011.96875 181.160156 C 1009.648438 187.121094 1002.820312 191.28125 994.921875 190.980469 C 987.023438 190.679688 980.527344 186.011719 978.671875 179.898438 C 978.0625 177.898438 979.714844 175.910156 981.800781 175.988281 L 1009.140625 177.03125" fill="#fff"/></g><g><path d="M 988.910156 205.03125 L 987.324219 215.441406 L 984.839844 231.601562 L 978.554688 272.800781 L 947.203125 281.101562 C 947.203125 281.101562 931.199219 265.011719 930.222656 263.820312 L 919.496094 263 C 921.1875 262.339844 929.613281 196.238281 929.613281 196.238281 L 988.910156 205.03125" fill="#ff8c78"/></g><g><path d="M 983.378906 241.191406 L 1009.570312 260.96875 L 1026.921875 358.515625 C 1026.921875 358.515625 973.027344 352.582031 971.644531 351.808594 C 970.257812 351.03125 882.085938 280.488281 881.914062 278.300781 C 881.742188 276.101562 924.296875 235.699219 924.296875 235.699219 C 924.296875 235.699219 936.074219 241.558594 939.113281 240.878906 C 942.148438 240.199219 983.378906 241.191406 983.378906 241.191406" fill="#ff8c78"/></g><g><path d="M 987.21875 216.121094 L 984.839844 231.601562 C 980.960938 231.019531 976.601562 229.960938 972.320312 228.03125 C 964.027344 224.390625 957.398438 217.949219 955.496094 213.691406 C 953.648438 209.410156 959.800781 209.390625 969.363281 212.609375 C 976.179688 214.910156 983.488281 215.460938 987.21875 216.121094" fill="#f57a64"/></g><g><path d="M 912.433594 247.058594 C 912.433594 247.058594 895.121094 257.550781 883.234375 264.601562 C 871.351562 271.640625 835.253906 275.078125 837.894531 299.578125 C 840.535156 324.078125 862.105469 404.191406 875.753906 447.773438 C 889.398438 491.351562 898.640625 549.898438 898.640625 551.21875 C 898.640625 552.539062 1070.320312 563.542969 1070.320312 563.542969 L 1075.160156 401.113281 C 1075.160156 401.113281 1071.421875 370.945312 1066.140625 358.515625 C 1060.851562 346.085938 1047.429688 328.480469 1045.230469 317.46875 C 1043.03125 306.46875 1045.230469 288.300781 1041.269531 281.101562 C 1037.300781 273.890625 993.558594 248.878906 993.558594 248.878906 C 993.558594 248.878906 1008.558594 310.511719 988.910156 315.269531 C 954.417969 323.636719 912.433594 247.058594 912.433594 247.058594" fill="#6077b3"/></g><g><path d="M 848.90625 278.96875 C 848.90625 278.96875 825.128906 290.179688 817.207031 309.328125 C 809.28125 328.480469 821.332031 387.246094 837.757812 433.464844 C 854.183594 479.6875 864.085938 510.71875 870.691406 515.34375 C 877.292969 519.964844 907.007812 517.984375 912.949219 512.039062 C 918.890625 506.097656 890.5 334.421875 888.519531 330.460938 C 886.535156 326.496094 848.90625 278.96875 848.90625 278.96875" fill="#6077b3"/></g><g><path d="M 1008.671875 87.679688 C 1008.671875 87.679688 1005.609375 111.019531 984.921875 114.980469 C 964.230469 118.949219 947.503906 118.949219 940.019531 127.75 C 932.535156 136.550781 931.65625 157.238281 937.378906 170.449219 C 943.101562 183.648438 951.070312 208.96875 933.660156 220.960938 C 916.25 232.960938 888.957031 226.789062 881.914062 206.539062 C 874.871094 186.300781 885.878906 164.730469 888.957031 146.679688 C 892.039062 128.628906 880.734375 75.730469 908.027344 58.570312 C 935.320312 41.398438 959.882812 40.589844 988.910156 45.871094 C 1017.941406 51.160156 1028.941406 61.28125 1035.101562 71.851562 C 1041.269531 82.410156 1008.671875 87.679688 1008.671875 87.679688" fill="#d5514d"/></g><g><path d="M 940.019531 476.386719 C 943.984375 477.703125 1004.070312 496.195312 1004.070312 496.195312 L 1009.351562 517.894531 L 980.96875 528.328125 L 898.210938 528.328125 C 889.496094 528.328125 880.929688 525.582031 874.105469 520.160156 C 872.671875 519.019531 871.480469 517.894531 870.800781 516.882812 C 858.410156 498.503906 858.410156 476.308594 858.410156 476.308594 C 858.410156 476.308594 936.058594 475.0625 940.019531 476.386719" fill="#6077b3"/></g><g><path d="M 1275.890625 543.734375 L 1013.53125 543.734375 L 1057.171875 391.414062 C 1059.480469 383.34375 1066.859375 377.78125 1075.25 377.78125 L 1306.058594 377.78125 C 1314.761719 377.78125 1321.039062 386.113281 1318.648438 394.480469 L 1275.890625 543.734375" fill="#36343b"/></g><g><path d="M 830.410156 543.734375 L 962.46875 543.734375 L 962.46875 528.328125 L 845.820312 528.328125 C 837.308594 528.328125 830.410156 535.226562 830.410156 543.734375" fill="#36343b"/></g><g><path d="M 1675.214844 578.515625 L 1675.214844 1251.890625 C 1675.214844 1271.089844 1662.699219 1286.667969 1647.273438 1286.667969 L 589.691406 1286.667969 L 589.691406 543.730469 L 1647.273438 543.730469 C 1662.699219 543.730469 1675.214844 559.289062 1675.214844 578.515625" fill="#e6e6e6"/></g><g><path d="M 1674.597656 578.515625 L 1674.597656 1251.890625 C 1674.597656 1271.089844 1660.121094 1286.667969 1642.265625 1286.667969 L 1153.015625 1286.667969 L 1417.519531 543.730469 L 1642.265625 543.730469 C 1660.121094 543.730469 1674.597656 559.289062 1674.597656 578.515625" fill="#d6d6d6"/></g><g><path d="M 583.050781 543.734375 L 583.050781 1286.667969 L 322.453125 1286.667969 C 309.574219 1286.667969 299.15625 1271.878906 299.15625 1253.660156 L 299.15625 576.75 C 299.15625 558.527344 309.574219 543.734375 322.453125 543.734375 L 583.050781 543.734375" fill="#d6d6d6"/></g><g><path d="M 769.285156 543.734375 L 652.546875 543.734375 L 652.546875 367.140625 C 652.546875 360.398438 658.011719 354.933594 664.753906 354.933594 L 757.082031 354.933594 C 763.820312 354.933594 769.285156 360.398438 769.285156 367.140625 L 769.285156 543.734375" fill="#f8e8e5"/></g><g><path d="M 652.546875 481.511719 L 633.269531 543.734375 L 652.546875 543.734375 Z M 652.546875 481.511719" fill="#c9b5ae"/></g><g><path d="M 748.707031 383.328125 L 673.128906 383.328125 C 671.910156 383.328125 670.925781 382.34375 670.925781 381.125 C 670.925781 379.910156 671.910156 378.921875 673.128906 378.921875 L 748.707031 378.921875 C 749.921875 378.921875 750.910156 379.910156 750.910156 381.125 C 750.910156 382.34375 749.921875 383.328125 748.707031 383.328125" fill="#dbccca"/></g><g><path d="M 722.753906 402.816406 L 673.128906 402.816406 C 671.910156 402.816406 670.925781 401.832031 670.925781 400.613281 C 670.925781 399.398438 671.910156 398.410156 673.128906 398.410156 L 722.753906 398.410156 C 723.96875 398.410156 724.957031 399.398438 724.957031 400.613281 C 724.957031 401.832031 723.96875 402.816406 722.753906 402.816406" fill="#dbccca"/></g><g><path d="M 748.707031 402.816406 L 732.742188 402.816406 C 731.527344 402.816406 730.539062 401.832031 730.539062 400.613281 C 730.539062 399.398438 731.527344 398.410156 732.742188 398.410156 L 748.707031 398.410156 C 749.921875 398.410156 750.910156 399.398438 750.910156 400.613281 C 750.910156 401.832031 749.921875 402.816406 748.707031 402.816406" fill="#dbccca"/></g><g><path d="M 689.089844 422.304688 L 673.128906 422.304688 C 671.910156 422.304688 670.925781 421.320312 670.925781 420.101562 C 670.925781 418.886719 671.910156 417.902344 673.128906 417.902344 L 689.089844 417.902344 C 690.308594 417.902344 691.292969 418.886719 691.292969 420.101562 C 691.292969 421.320312 690.308594 422.304688 689.089844 422.304688" fill="#dbccca"/></g><g><path d="M 748.707031 422.304688 L 702.230469 422.304688 C 701.015625 422.304688 700.027344 421.320312 700.027344 420.101562 C 700.027344 418.886719 701.015625 417.902344 702.230469 417.902344 L 748.707031 417.902344 C 749.921875 417.902344 750.910156 418.886719 750.910156 420.101562 C 750.910156 421.320312 749.921875 422.304688 748.707031 422.304688" fill="#dbccca"/></g><g><path d="M 748.707031 441.792969 L 673.128906 441.792969 C 671.910156 441.792969 670.925781 440.808594 670.925781 439.59375 C 670.925781 438.375 671.910156 437.390625 673.128906 437.390625 L 748.707031 437.390625 C 749.921875 437.390625 750.910156 438.375 750.910156 439.59375 C 750.910156 440.808594 749.921875 441.792969 748.707031 441.792969" fill="#dbccca"/></g><g><path d="M 706.863281 461.28125 L 673.128906 461.28125 C 671.910156 461.28125 670.925781 460.296875 670.925781 459.078125 C 670.925781 457.863281 671.910156 456.878906 673.128906 456.878906 L 706.863281 456.878906 C 708.078125 456.878906 709.066406 457.863281 709.066406 459.078125 C 709.066406 460.296875 708.078125 461.28125 706.863281 461.28125" fill="#dbccca"/></g><g><path d="M 748.707031 461.28125 L 715.839844 461.28125 C 714.621094 461.28125 713.636719 460.296875 713.636719 459.078125 C 713.636719 457.863281 714.621094 456.878906 715.839844 456.878906 L 748.707031 456.878906 C 749.921875 456.878906 750.910156 457.863281 750.910156 459.078125 C 750.910156 460.296875 749.921875 461.28125 748.707031 461.28125" fill="#dbccca"/></g><g><path d="M 748.707031 480.769531 L 673.128906 480.769531 C 671.910156 480.769531 670.925781 479.785156 670.925781 478.566406 C 670.925781 477.351562 671.910156 476.363281 673.128906 476.363281 L 748.707031 476.363281 C 749.921875 476.363281 750.910156 477.351562 750.910156 478.566406 C 750.910156 479.785156 749.921875 480.769531 748.707031 480.769531" fill="#dbccca"/></g><g><path d="M 748.707031 500.257812 L 703.386719 500.257812 C 702.171875 500.257812 701.1875 499.273438 701.1875 498.054688 C 701.1875 496.839844 702.171875 495.851562 703.386719 495.851562 L 748.707031 495.851562 C 749.921875 495.851562 750.910156 496.839844 750.910156 498.054688 C 750.910156 499.273438 749.921875 500.257812 748.707031 500.257812" fill="#dbccca"/></g><g><path d="M 693.109375 500.257812 L 673.128906 500.257812 C 671.910156 500.257812 670.925781 499.273438 670.925781 498.054688 C 670.925781 496.839844 671.910156 495.851562 673.128906 495.851562 L 693.109375 495.851562 C 694.324219 495.851562 695.308594 496.839844 695.308594 498.054688 C 695.308594 499.273438 694.324219 500.257812 693.109375 500.257812" fill="#dbccca"/></g><g><path d="M 717.867188 519.746094 L 673.128906 519.746094 C 671.910156 519.746094 670.925781 518.761719 670.925781 517.542969 C 670.925781 516.324219 671.910156 515.34375 673.128906 515.34375 L 717.867188 515.34375 C 719.085938 515.34375 720.070312 516.324219 720.070312 517.542969 C 720.070312 518.761719 719.085938 519.746094 717.867188 519.746094" fill="#dbccca"/></g><g><path d="M 1197.480469 452.835938 C 1197.480469 459.816406 1189.78125 466.414062 1182.191406 465.476562 C 1175.261719 464.621094 1172.191406 459.816406 1172.191406 452.835938 C 1172.191406 445.851562 1180.628906 438.816406 1187.480469 440.191406 C 1195.828125 441.871094 1197.480469 445.851562 1197.480469 452.835938" fill="#c9b5ae"/></g><g><path d="M 999.089844 499.132812 C 938.976562 503.90625 908.144531 444.429688 895.691406 394.78125 C 889.285156 369.234375 886.011719 342.578125 877.535156 317.589844 C 871.839844 300.800781 860.246094 285.171875 840.796875 286.519531 C 837.421875 286.761719 837.398438 292.039062 840.796875 291.808594 C 873.648438 289.519531 878.222656 339.390625 883.140625 362.675781 C 888.316406 387.175781 893.359375 411.855469 903.300781 434.960938 C 919.941406 473.644531 954.019531 507.996094 999.089844 504.414062 C 1002.449219 504.148438 1002.480469 498.863281 999.089844 499.132812" fill="#5067a3"/></g><g><path d="M 13.957031 775.757812 C 16.941406 783.175781 20.558594 789.964844 24.730469 796.277344 C 55.683594 843.609375 115.351562 865 146.699219 930.210938 C 182.226562 1004.109375 215.449219 1081.128906 220.308594 1125.710938 C 222.371094 1144.621094 220.679688 1154.179688 218.066406 1158.910156 C 226.886719 1152.410156 247.164062 1141.210938 248.828125 1096.941406 C 251.441406 1027.339844 255.199219 834.3125 231.957031 761.257812 C 222.421875 731.253906 207.316406 704.996094 190.675781 680.992188 C 166.878906 646.496094 139.9375 616.625 121.953125 586.964844 C 91.421875 536.652344 63.714844 515.492188 31.335938 550.992188 C -0.226562 585.59375 -11.375 712.84375 13.957031 775.757812" fill="#286a7d"/></g><g><path d="M 259.570312 1105.800781 C 259.570312 1105.800781 202.136719 1008.679688 191.277344 912.289062 C 180.414062 815.902344 240.097656 610.84375 251.179688 496.511719 C 262.265625 382.183594 241.605469 245.140625 342.070312 232.53125 C 442.535156 219.921875 405.257812 344.003906 439.507812 413.753906 C 473.753906 483.503906 515.230469 545.683594 467.792969 658.179688 C 420.355469 770.679688 330.179688 868.988281 310.996094 938.707031 C 291.808594 1008.429688 295.082031 1105.648438 271.359375 1126 C 247.636719 1146.339844 259.570312 1105.800781 259.570312 1105.800781" fill="#3993ad"/></g><g><path d="M 247.664062 889.503906 C 247.660156 889.074219 247.734375 888.632812 247.996094 888.171875 C 248 888.164062 248.007812 888.152344 248.015625 888.144531 C 253.871094 864.949219 261.132812 842.21875 268.835938 820.480469 C 279.3125 790.917969 290.699219 761.566406 300.699219 731.796875 C 300.460938 731.445312 300.273438 731.046875 300.214844 730.550781 C 296.199219 696.183594 282.675781 664.167969 260.855469 637.320312 C 258.730469 634.703125 262.445312 630.945312 264.589844 633.582031 C 285.429688 659.226562 298.796875 688.953125 304.160156 721.289062 C 310.574219 701.40625 316.253906 681.304688 320.515625 660.796875 C 332.125 604.898438 330.355469 547.726562 329.324219 490.984375 C 328.207031 429.449219 328.5 367.226562 348.011719 308.171875 C 349.074219 304.960938 354.175781 306.339844 353.105469 309.578125 C 321.871094 404.105469 340.472656 503.8125 333.78125 601.242188 C 353.746094 556.394531 404.476562 528.15625 418.203125 479.027344 C 419.117188 475.757812 424.214844 477.148438 423.296875 480.433594 C 406.898438 539.121094 336.28125 568.535156 331.195312 631.546875 C 331.148438 632.136719 330.910156 632.589844 330.609375 632.976562 C 330.585938 633.152344 330.566406 633.328125 330.542969 633.507812 C 319.085938 717.46875 279.753906 793.777344 256.796875 874.574219 C 277.507812 845.964844 307.601562 825.535156 342.296875 816.96875 C 345.59375 816.15625 347.003906 821.246094 343.699219 822.0625 C 304.980469 831.621094 272.363281 856.21875 252.558594 890.839844 C 252.507812 890.929688 252.433594 890.964844 252.378906 891.046875 C 248.679688 905.710938 245.589844 920.539062 243.40625 935.621094 C 235.152344 992.65625 239.832031 1052.46875 270.734375 1102.390625 C 272.527344 1105.289062 267.960938 1107.941406 266.175781 1105.050781 C 225.464844 1039.300781 229.507812 962.15625 247.664062 889.503906" fill="#286a7d"/></g><g><path d="M 218.066406 1158.910156 C 213.019531 1162.640625 209.164062 1162.929688 209.164062 1162.929688 C 209.164062 1162.929688 214.472656 1165.378906 218.066406 1158.910156" fill="#d3ebf0"/></g><g clip-path="url(#a)"><path d="M 217.847656 1320.308594 L 281.191406 1320.308594 C 316.042969 1320.308594 345.121094 1297.28125 348.195312 1267.25 L 363.367188 1118.878906 C 365.335938 1099.640625 347.8125 1083.078125 325.484375 1083.078125 L 172.171875 1083.078125 C 149.722656 1083.078125 132.15625 1099.808594 134.3125 1119.140625 L 150.890625 1267.710938 C 154.21875 1297.550781 183.199219 1320.308594 217.847656 1320.308594" fill="#ab3a4e"/></g><g><path d="M 1851.113281 652.183594 L 2016.984375 652.183594 C 2031.601562 652.183594 2043.449219 640.328125 2043.449219 625.707031 L 2030.234375 539.074219 C 2030.234375 524.453125 2018.390625 512.597656 2003.769531 512.597656 L 1864.316406 512.597656 C 1849.683594 512.597656 1837.839844 524.453125 1837.839844 539.074219 L 1824.625 625.707031 C 1824.625 640.328125 1836.484375 652.183594 1851.113281 652.183594" fill="#3c4473"/></g><g><path d="M 1897.589844 512.582031 C 1898.40625 484.675781 1914.132812 459.765625 1933.433594 459.765625 C 1952.722656 459.765625 1968.449219 484.675781 1969.265625 512.582031 L 1981.152344 512.582031 C 1980.335938 475.082031 1959.285156 445.039062 1933.433594 445.039062 C 1907.554688 445.039062 1886.515625 475.082031 1885.703125 512.582031 L 1897.589844 512.582031" fill="#3c4473"/></g><g><path d="M 1912.402344 276.648438 C 1912.402344 276.648438 1952.925781 294.316406 1969.664062 332.914062 C 1986.390625 371.511719 2033.050781 478.738281 2018.957031 496.433594 C 2004.875 514.132812 1984.183594 502.34375 1973.617188 486.773438 C 1963.054688 471.207031 1921.246094 376.792969 1921.246094 376.792969 L 1912.402344 276.648438" fill="#ff8c78"/></g><g><path d="M 1997.386719 451.421875 L 2003.742188 505.289062 C 2003.742188 505.289062 1953.453125 504.035156 1912.394531 502.484375 L 1909.777344 463.109375 C 1947.96875 458.542969 1997.386719 451.421875 1997.386719 451.421875" fill="#ff8c78"/></g><g><path d="M 1703.519531 450.878906 C 1703.519531 450.878906 1721.378906 469.875 1715.84375 564.121094 C 1711.988281 629.734375 1709.601562 655.128906 1701.691406 662.171875 C 1693.761719 669.214844 1681.4375 662.171875 1676.148438 656.890625 C 1670.867188 651.609375 1662.113281 585.824219 1660.378906 538.285156 C 1658.660156 490.742188 1653.1875 478.433594 1653.1875 478.433594 L 1663.019531 450.878906 L 1703.519531 450.878906" fill="#f57a64"/></g><g><path d="M 1639.457031 276.648438 C 1639.457031 276.648438 1701.578125 435.722656 1707.738281 460.375 C 1713.914062 485.027344 1672.714844 485.808594 1661.265625 485.949219 C 1649.824219 486.09375 1605.800781 383.753906 1605.800781 383.753906 L 1608.4375 301.484375 L 1639.457031 276.648438" fill="#f57a64"/></g><g><path d="M 1434.5 1224.488281 L 1431.941406 1262.589844 C 1431.941406 1262.589844 1438.339844 1268.601562 1450.769531 1267.730469 C 1463.199219 1266.859375 1469.300781 1274.339844 1472.390625 1268.71875 C 1475.488281 1263.101562 1474.949219 1232.648438 1474.949219 1232.648438 L 1434.5 1224.488281" fill="#ff8c78"/></g><g><path d="M 1635.128906 271.667969 C 1635.128906 271.667969 1647.179688 277.660156 1661.699219 310.015625 C 1676.230469 342.367188 1692.949219 383.058594 1689.429688 390.570312 C 1685.917969 398.082031 1673.589844 393.777344 1657.078125 415.945312 C 1640.574219 438.113281 1632.886719 442.324219 1632.886719 442.324219 C 1632.886719 442.324219 1614.160156 449.996094 1614.160156 448.015625 C 1614.160156 446.035156 1607.335938 319.035156 1605.800781 317.496094 C 1604.261719 315.957031 1635.128906 271.667969 1635.128906 271.667969" fill="#f0a65b"/></g><g><path d="M 1474.988281 1251.640625 C 1467.871094 1248.980469 1447.121094 1252.660156 1439.5 1247.320312 C 1429.800781 1240.53125 1426.789062 1243.789062 1424.78125 1247.320312 C 1422.769531 1250.859375 1387.300781 1278.648438 1381.28125 1280.238281 C 1375.261719 1281.828125 1360.871094 1288.578125 1358.191406 1303.28125 C 1355.511719 1317.96875 1426.449219 1312.410156 1431.140625 1311.21875 C 1435.820312 1310.03125 1435.820312 1305.261719 1439.171875 1306.058594 C 1440.828125 1306.449219 1441.671875 1307.640625 1442.089844 1308.71875 C 1442.609375 1310.070312 1443.78125 1312.390625 1445.019531 1312.417969 C 1452.070312 1312.601562 1471.578125 1313.011719 1472.949219 1312.359375 C 1474.621094 1311.570312 1475.199219 1289.058594 1474.75 1278.300781 C 1474.53125 1273.121094 1476.769531 1252.308594 1474.988281 1251.640625" fill="#3d3b42"/></g><g><path d="M 1568.328125 1224.488281 L 1565.769531 1262.589844 C 1565.769531 1262.589844 1572.171875 1268.601562 1584.601562 1267.730469 C 1597.03125 1266.859375 1603.128906 1274.339844 1606.21875 1268.71875 C 1609.320312 1263.101562 1608.78125 1232.648438 1608.78125 1232.648438 L 1568.328125 1224.488281" fill="#ff8c78"/></g><g><path d="M 1608.558594 1251.289062 C 1601.449219 1248.621094 1580.949219 1252.660156 1573.328125 1247.320312 C 1563.628906 1240.53125 1560.621094 1243.789062 1558.609375 1247.320312 C 1556.601562 1250.859375 1521.128906 1278.648438 1515.109375 1280.238281 C 1509.078125 1281.828125 1494.699219 1288.578125 1492.019531 1303.28125 C 1489.339844 1317.96875 1560.28125 1312.410156 1564.96875 1311.21875 C 1569.648438 1310.03125 1569.648438 1305.261719 1573 1306.058594 C 1574.660156 1306.449219 1575.5 1307.640625 1575.921875 1308.71875 C 1576.441406 1310.070312 1577.609375 1312.390625 1578.851562 1312.417969 C 1585.898438 1312.601562 1605.410156 1313.011719 1606.78125 1312.359375 C 1608.449219 1311.570312 1609.019531 1289.058594 1608.578125 1278.300781 C 1608.359375 1273.121094 1610.351562 1251.949219 1608.558594 1251.289062" fill="#3d3b42"/></g><g><path d="M 1240.851562 337.101562 C 1240.851562 337.101562 1233.921875 322.90625 1231.269531 312.339844 C 1228.628906 301.78125 1222.03125 291.210938 1213.449219 284.941406 C 1204.859375 278.671875 1199.578125 271.660156 1199.25 282.628906 C 1198.890625 294.609375 1210.359375 295.171875 1209.371094 302.441406 C 1208.378906 309.699219 1183.070312 302.769531 1177.460938 291.539062 C 1171.851562 280.320312 1166.570312 269.421875 1162.269531 272.058594 C 1157.980469 274.699219 1151.710938 298.808594 1156.621094 314.320312 C 1160.410156 326.285156 1169.539062 340.074219 1187.03125 354.269531 C 1202.078125 366.480469 1218.398438 371.433594 1218.398438 371.433594 L 1240.851562 337.101562" fill="#ff8c78"/></g><g><path d="M 1632.257812 683.257812 C 1627.105469 793.105469 1610.84375 1224.648438 1610.34375 1233.148438 C 1609.730469 1244.140625 1600.722656 1243.078125 1585.351562 1239.359375 C 1573.695312 1236.53125 1558.464844 1244.269531 1553.292969 1237.167969 C 1547.953125 1229.898438 1522.832031 867.742188 1515.566406 742.367188 C 1515.546875 741.683594 1515.207031 741.257812 1514.785156 741.046875 C 1513.992188 740.679688 1512.878906 741.101562 1512.800781 742.367188 C 1512.800781 742.367188 1512.800781 742.632812 1512.769531 743.109375 C 1504.582031 892.652344 1484.832031 1226.390625 1484.429688 1233.148438 C 1483.820312 1244.140625 1474.820312 1243.078125 1459.449219 1239.359375 C 1447.804688 1236.53125 1432.351562 1239.378906 1427.171875 1232.28125 C 1421.039062 1223.910156 1388.902344 704.070312 1387.710938 659.277344 C 1386.519531 614.484375 1395.636719 579.328125 1395.636719 579.328125 L 1516.097656 579.328125 L 1516.175781 609.410156 C 1518.5 590.976562 1521.539062 579.328125 1521.539062 579.328125 C 1521.539062 579.328125 1626.945312 581.335938 1626.996094 581.652344 C 1626.996094 581.652344 1630.042969 596.234375 1631.757812 621.800781 C 1632.871094 638.121094 1633.390625 658.933594 1632.257812 683.257812" fill="#74425f"/></g><g><path d="M 1409.988281 55.929688 C 1409.988281 55.929688 1398.988281 193.710938 1442.25 194.269531 C 1469.808594 194.628906 1530.449219 186.261719 1532.058594 182.730469 C 1533.679688 179.199219 1520 49.949219 1520 49.949219 L 1409.988281 55.929688" fill="#ff8c78"/></g><g><path d="M 1542.691406 244.519531 C 1541.839844 246.050781 1527.558594 266.28125 1527.558594 266.28125 L 1474.121094 262.710938 L 1457.761719 193.601562 L 1530.929688 171.558594 C 1530.929688 171.558594 1541.238281 246.191406 1542.660156 244.53125 L 1542.691406 244.519531" fill="#ff8c78"/></g><g><path d="M 1632.257812 683.257812 C 1627.105469 793.105469 1610.84375 1224.648438 1610.34375 1233.148438 C 1609.730469 1244.140625 1600.722656 1243.078125 1585.351562 1239.359375 C 1573.695312 1236.53125 1558.464844 1244.269531 1553.292969 1237.167969 C 1547.953125 1229.898438 1522.832031 867.742188 1515.566406 742.367188 C 1515.546875 741.683594 1515.207031 741.257812 1514.785156 741.046875 C 1522.832031 735.792969 1560.378906 722.796875 1582.996094 698.367188 C 1610.574219 668.601562 1629.382812 622.378906 1629.382812 622.378906 C 1629.382812 622.378906 1630.285156 622.140625 1631.757812 621.800781 C 1632.871094 638.121094 1633.390625 658.933594 1632.257812 683.257812" fill="#61344e"/></g><g><path d="M 1454.890625 148.480469 C 1444.449219 134.890625 1443.46875 122.519531 1445.980469 105.558594 C 1447.25 96.960938 1446.640625 73.210938 1426.140625 74.199219 C 1404.738281 75.230469 1383.160156 57.179688 1394.449219 27.160156 C 1405.730469 -2.871094 1425.058594 -0.269531 1442.511719 0.320312 C 1459.96875 0.910156 1486.03125 8.449219 1498.46875 9.730469 C 1510.910156 11.019531 1532.199219 6.191406 1543.351562 24.671875 C 1557.78125 48.601562 1546.300781 93.941406 1539.410156 140.890625 C 1538.578125 146.570312 1534.269531 170.710938 1533.199219 176.648438 C 1533 177.800781 1532.511719 178.898438 1531.730469 179.769531 C 1528.398438 183.421875 1517.53125 189.351562 1488.898438 164 C 1478.621094 154.890625 1461.28125 156.789062 1454.890625 148.480469" fill="#8c4b3c"/></g><g><path d="M 1439.050781 242.839844 C 1439.050781 242.839844 1451.808594 213.078125 1457.761719 208.238281 C 1463.699219 203.390625 1491.429688 197.230469 1504.640625 197.671875 C 1517.839844 198.109375 1535.398438 197.230469 1542.691406 205.148438 C 1549.980469 213.078125 1556.578125 236.410156 1556.578125 236.410156 L 1439.050781 242.839844" fill="#f8e8e5"/></g><g><path d="M 1372.40625 293.511719 C 1372.039062 282.503906 1377.910156 272.03125 1388.28125 265.261719 C 1413.238281 248.960938 1462.230469 220.738281 1504.605469 218.914062 C 1564.421875 216.347656 1630.609375 263.113281 1639.449219 276.65625 C 1648.269531 290.1875 1632.058594 441.578125 1632.058594 467.425781 C 1632.058594 493.273438 1652.363281 617.285156 1642.0625 630.828125 C 1631.773438 644.363281 1584.65625 659.023438 1528.78125 656.5625 C 1472.90625 654.097656 1393.488281 648.355469 1383.371094 638.507812 C 1373.265625 628.660156 1387.589844 506.8125 1387.589844 459.015625 C 1387.589844 422.761719 1373.734375 333.339844 1372.40625 293.511719" fill="#ffbf7d"/></g><g><path d="M 1380.761719 271.660156 C 1380.761719 271.660156 1299.421875 436.789062 1290.621094 449.117188 C 1281.808594 461.441406 1280.050781 520.199219 1323.191406 498.742188 C 1366.328125 477.289062 1421.800781 353.152344 1421.800781 353.152344 L 1421.800781 292.410156 L 1380.761719 271.660156" fill="#ff8c78"/></g><g><path d="M 1218.398438 371.433594 C 1218.398438 371.433594 1247.398438 431.140625 1258.921875 449.996094 C 1266.320312 462.105469 1291.941406 496.164062 1291.941406 496.164062 L 1339.921875 437.820312 C 1339.921875 437.820312 1304.769531 408.082031 1295.019531 398.167969 C 1280 382.902344 1240.851562 337.101562 1240.851562 337.101562 L 1207.859375 337.101562 L 1218.398438 371.433594" fill="#ff8c78"/></g><g><path d="M 1398.070312 259.050781 C 1398.070312 259.050781 1376.460938 264.449219 1363.25 284.921875 C 1350.039062 305.390625 1328.910156 351.613281 1328.25 358.878906 C 1327.589844 366.140625 1332.039062 395.851562 1363.160156 412.359375 C 1394.28125 428.867188 1415.410156 421.605469 1415.410156 421.605469 C 1415.410156 421.605469 1449.089844 301.460938 1449.089844 297.148438 C 1449.089844 292.851562 1448.429688 267.449219 1445.789062 266.28125 C 1443.140625 265.109375 1398.070312 259.050781 1398.070312 259.050781" fill="#ffbf7d"/></g><g><path d="M 1810.480469 1292.769531 C 1809.421875 1294.140625 1805.722656 1295.519531 1800.304688 1296.839844 C 1800.183594 1296.628906 1800.070312 1296.441406 1799.9375 1296.308594 C 1799.433594 1295.75 1797.34375 1296.601562 1794.046875 1298.179688 C 1767.484375 1303.410156 1718.105469 1307.511719 1712.699219 1307.03125 C 1711.269531 1306.898438 1710.183594 1306.558594 1709.371094 1306.03125 C 1708.6875 1302.328125 1709.527344 1297.660156 1711.503906 1293.511719 C 1714.945312 1290.308594 1727.96875 1283.660156 1741.0625 1276.210938 C 1754.558594 1268.578125 1768.109375 1260.070312 1771.304688 1253.597656 C 1780.09375 1235.769531 1765.035156 1146.410156 1765.035156 1146.410156 L 1820.9375 1153.890625 C 1820.9375 1153.890625 1811.65625 1218.898438 1813.585938 1245.230469 C 1814.066406 1251.828125 1814.515625 1258.328125 1814.695312 1264.320312 C 1815.09375 1277.078125 1814.390625 1287.699219 1810.480469 1292.769531" fill="#ff8c78"/></g><g><path d="M 1817.347656 1283.417969 C 1816.558594 1288.941406 1811.75 1310.011719 1811.28125 1310.21875 C 1810.300781 1310.621094 1799.546875 1310.351562 1794.785156 1309.761719 C 1794.539062 1309.730469 1797.304688 1297.378906 1791.929688 1298.667969 C 1775.097656 1302.699219 1771.015625 1310.808594 1752.109375 1311.628906 C 1726.488281 1312.761719 1711.71875 1310.070312 1710.378906 1307.78125 C 1709.824219 1306.828125 1709.410156 1305.949219 1709.199219 1304.710938 C 1708.507812 1301.011719 1707.59375 1297.859375 1711.5625 1293.429688 C 1715.011719 1290.230469 1728.027344 1283.578125 1741.132812 1276.128906 C 1741.175781 1279.191406 1742.203125 1284.050781 1748.359375 1284.980469 C 1757.417969 1286.378906 1768.226562 1285.929688 1801.609375 1274.410156 C 1811.203125 1271.109375 1814.761719 1264.25 1814.761719 1264.25 C 1814.761719 1264.25 1818.117188 1277.898438 1817.347656 1283.417969" fill="#74425f"/></g><g><path d="M 1944.347656 1293.859375 C 1943.300781 1295.199219 1939.679688 1296.53125 1934.359375 1297.808594 C 1934.226562 1297.601562 1934.121094 1297.417969 1933.988281 1297.289062 C 1933.496094 1296.738281 1931.449219 1297.558594 1928.210938 1299.109375 C 1902.089844 1304.140625 1853.625 1307.960938 1848.320312 1307.46875 C 1846.910156 1307.339844 1845.851562 1307 1845.046875 1306.46875 C 1844.386719 1302.839844 1845.238281 1298.261719 1847.199219 1294.191406 C 1850.582031 1291.070312 1863.382812 1284.589844 1876.28125 1277.328125 C 1889.554688 1269.890625 1902.886719 1261.589844 1906.0625 1255.25 C 1914.761719 1237.789062 1895.726562 1128.941406 1895.726562 1128.941406 L 1961.214844 1102.761719 C 1961.214844 1102.761719 1945.804688 1221.339844 1947.597656 1247.199219 C 1948.039062 1253.679688 1948.460938 1260.058594 1948.605469 1265.949219 C 1948.945312 1278.46875 1948.210938 1288.890625 1944.347656 1293.859375" fill="#ff8c78"/></g><g><path d="M 1951.160156 1284.699219 C 1950.355469 1290.121094 1945.554688 1310.78125 1945.085938 1310.988281 C 1944.128906 1311.371094 1933.578125 1311.070312 1928.898438 1310.46875 C 1928.65625 1310.441406 1931.4375 1298.328125 1926.128906 1299.570312 C 1909.605469 1303.460938 1905.570312 1311.410156 1887.007812 1312.140625 C 1861.847656 1313.148438 1847.359375 1310.460938 1846.042969 1308.191406 C 1845.503906 1307.261719 1845.109375 1306.398438 1844.90625 1305.179688 C 1844.246094 1301.539062 1843.347656 1298.449219 1847.277344 1294.121094 C 1850.664062 1290.988281 1863.464844 1284.511719 1876.351562 1277.25 C 1876.398438 1280.261719 1877.394531 1285.03125 1883.429688 1285.960938 C 1892.3125 1287.371094 1902.921875 1286.96875 1935.734375 1275.800781 C 1945.160156 1272.601562 1948.679688 1265.871094 1948.679688 1265.871094 C 1948.679688 1265.871094 1951.925781 1279.289062 1951.160156 1284.699219" fill="#74425f"/></g><g><path d="M 1418.53125 257.800781 C 1415.140625 257.628906 1415.140625 262.921875 1418.53125 263.078125 C 1450.289062 264.609375 1443.550781 320.972656 1438.121094 341.25 C 1431.570312 365.714844 1417.871094 387.292969 1398.859375 403.949219 C 1396.300781 406.191406 1400.050781 409.914062 1402.601562 407.683594 C 1426.519531 386.722656 1442.25 357.769531 1446.5 326.179688 C 1449.488281 303.890625 1449.769531 259.300781 1418.53125 257.800781" fill="#f0a65b"/></g><g><path d="M 1753.765625 97.359375 C 1753.765625 97.359375 1735.554688 213.222656 1784.28125 230.03125 C 1809.25 238.644531 1868.828125 222.605469 1870.378906 219.230469 C 1871.941406 215.851562 1859.214844 91.949219 1859.214844 91.949219 L 1753.765625 97.359375" fill="#ff8c78"/></g><g><path d="M 1880.382812 278.480469 C 1879.566406 279.941406 1865.8125 299.289062 1865.8125 299.289062 L 1814.617188 295.710938 L 1799.136719 229.433594 L 1869.320312 208.523438 C 1869.320312 208.523438 1878.988281 280.074219 1880.351562 278.484375 L 1880.382812 278.480469" fill="#ff8c78"/></g><g><path d="M 1885.441406 260.558594 C 1885.441406 260.558594 1793.03125 248.742188 1765.75 288.664062 C 1744.644531 319.535156 1727.6875 395.472656 1748.519531 448.34375 C 1756.449219 468.453125 1757.820312 528.574219 1769.046875 587.339844 C 1770.457031 594.710938 1884.289062 578.753906 1908.535156 574.191406 C 1919.726562 572.085938 1904.445312 544.191406 1924.214844 510.746094 C 1943.363281 478.351562 1961.558594 404.929688 1955.914062 344.730469 C 1949.753906 279.085938 1885.441406 260.558594 1885.441406 260.558594" fill="#ab3a4e"/></g><g><path d="M 1815.121094 228.757812 C 1815.121094 228.757812 1825.894531 259.488281 1838.199219 273.84375 C 1850.492188 288.195312 1861.605469 282.453125 1862.160156 302.667969 C 1862.714844 322.882812 1873.605469 362.148438 1898.027344 356.867188 C 1922.460938 351.582031 1923.121094 329.023438 1917.1875 302.667969 C 1911.242188 276.308594 1919.726562 254.675781 1915.207031 239.523438 C 1903.3125 199.71875 1889.34375 214.144531 1890.109375 177.925781 C 1890.773438 146.894531 1858.550781 107.738281 1858.550781 107.738281 L 1815.121094 228.757812" fill="#3d3b42"/></g><g><path d="M 1850.253906 62.195312 C 1830.457031 55.46875 1806.683594 52.9375 1775.433594 66.59375 C 1744.183594 80.234375 1753.769531 97.363281 1753.769531 97.363281 C 1773.40625 96.464844 1784.984375 131.210938 1778.289062 158.148438 C 1774.324219 174.089844 1773.300781 189.179688 1791.5 197.648438 C 1806.914062 204.816406 1811.03125 228.0625 1818.9375 232.542969 C 1850.839844 250.59375 1866.871094 219.875 1870.066406 216.390625 C 1870.835938 215.558594 1871.289062 214.507812 1871.488281 213.402344 C 1872.527344 207.710938 1876.734375 184.597656 1877.539062 179.148438 C 1884.28125 134.171875 1900.578125 79.253906 1850.253906 62.195312" fill="#3d3b42"/></g><g><path d="M 1817.242188 296.21875 C 1812.855469 276.203125 1787.902344 269.464844 1774.597656 284.839844 C 1768.566406 291.800781 1763.261719 301.730469 1760.207031 315.875 C 1749.386719 365.957031 1764.683594 482.382812 1767.078125 488.96875 C 1769.484375 495.550781 1795.457031 503.980469 1805.484375 487.441406 C 1815.5 470.902344 1824.003906 342.273438 1821.039062 317.980469 C 1820.128906 310.550781 1818.742188 303.050781 1817.242188 296.21875" fill="#ff8c78"/></g><g><path d="M 1900.546875 562.265625 C 1925.308594 558.003906 1929.566406 578.136719 1936.191406 589.253906 C 1955.707031 621.949219 1972.988281 669.359375 1983.203125 740.546875 C 1994.222656 817.28125 2025.09375 1042.519531 1967 1110.308594 C 1923.851562 1160.640625 1879.152344 1128.800781 1867.722656 1161.808594 C 1856.292969 1194.820312 1798.519531 1211.289062 1761.347656 1177.21875 C 1709.132812 1129.359375 1707.628906 959.832031 1706.996094 902.535156 C 1705.652344 781.042969 1733.867188 646.84375 1750.441406 597.921875 C 1771.015625 537.175781 1789.003906 566.667969 1833.222656 569.421875 C 1864.355469 571.363281 1886.394531 564.699219 1900.546875 562.265625" fill="#f8e8e5"/></g><g><path d="M 1673.574219 650.652344 C 1673.574219 650.652344 1678.15625 678.457031 1682.105469 691.664062 C 1686.066406 704.871094 1713.78125 718.957031 1719.730469 720.277344 C 1725.691406 721.597656 1740.78125 710.609375 1740.78125 707.949219 C 1740.792969 696.503906 1727.152344 682.523438 1721.726562 670.535156 C 1716.3125 658.546875 1709.113281 650.652344 1709.113281 650.652344 L 1673.574219 650.652344" fill="#f57a64"/></g><g><path d="M 1765.144531 478.347656 C 1765.144531 478.347656 1752.808594 500.558594 1743.308594 527.246094 C 1733.792969 553.9375 1716.871094 636.25 1716.871094 636.25 C 1722.402344 643.695312 1748.53125 636.292969 1748.53125 636.292969 C 1766.710938 592.082031 1789.011719 564.117188 1803.902344 509.761719 C 1809.125 490.691406 1811.335938 465.183594 1811.335938 465.183594 L 1765.144531 478.347656" fill="#ff8c78"/></g><g><path d="M 1716.863281 636.253906 C 1716.863281 636.253906 1708.300781 646.328125 1703.679688 660.191406 C 1699.054688 674.058594 1681.890625 711.472656 1696.414062 714.777344 C 1710.941406 718.078125 1730.089844 710.8125 1735.367188 702.230469 C 1740.65625 693.644531 1748.515625 636.296875 1748.515625 636.296875 L 1716.863281 636.253906" fill="#ff8c78"/></g><g><path d="M 1867.722656 120.253906 C 1870.070312 118.53125 1889.222656 106.644531 1904.410156 113.90625 C 1919.589844 121.171875 1922.242188 138.753906 1912.335938 147.457031 C 1902.429688 156.164062 1885.4375 155.535156 1881.390625 155.851562 C 1877.347656 156.164062 1858.195312 143.621094 1858.855469 141.640625 C 1859.515625 139.652344 1867.722656 120.253906 1867.722656 120.253906" fill="#3d3b42"/></g><g><path d="M 1948.515625 668.359375 C 1948.777344 664.96875 1943.496094 664.988281 1943.242188 668.359375 C 1937.21875 745.878906 1910.425781 820.097656 1897.5625 896.539062 C 1884.9375 971.609375 1880.40625 1047.828125 1883.65625 1123.871094 C 1883.800781 1127.261719 1889.085938 1127.28125 1888.941406 1123.871094 C 1885.558594 1044.898438 1890.542969 965.707031 1904.398438 887.867188 C 1917.46875 814.417969 1942.730469 743.027344 1948.515625 668.359375" fill="#e6d7d4"/></g><g><path d="M 2853.984375 649.378906 C 2840.503906 649.988281 2827.816406 656.128906 2818.269531 665.589844 C 2813.402344 670.449219 2809.34375 676.128906 2806.285156 682.304688 C 2804.105469 686.734375 2799.132812 696.140625 2800.925781 701.179688 C 2803.703125 709.085938 2811.75 696.980469 2813.015625 694.730469 C 2815.265625 690.683594 2818.21875 687.15625 2821.082031 683.535156 C 2822.699219 691.277344 2821.1875 699.410156 2818.21875 706.742188 C 2815.160156 714.289062 2810.046875 720.523438 2806.460938 727.71875 C 2804.511719 731.613281 2802.472656 738.367188 2807.480469 740.898438 C 2809.0625 741.699219 2810.925781 741.824219 2812.699219 741.738281 C 2824.441406 741.171875 2834.019531 730.753906 2839.820312 721.402344 C 2844.984375 713.066406 2849.574219 704.382812 2853.984375 695.621094 C 2856.9375 689.75 2864.757812 679.234375 2863.351562 672.925781 C 2862.84375 670.730469 2855.054688 649.332031 2853.984375 649.378906" fill="#ff8c78"/></g><g><path d="M 3031.882812 1224.011719 L 3029.394531 1260.738281 C 3029.394531 1260.738281 3035.574219 1266.519531 3047.539062 1265.679688 C 3059.523438 1264.851562 3065.402344 1272.058594 3068.378906 1266.640625 C 3071.375 1261.230469 3070.847656 1231.878906 3070.847656 1231.878906 L 3031.882812 1224.011719" fill="#ffb49c"/></g><g><path d="M 3070.882812 1250.179688 C 3064.039062 1247.621094 3044.039062 1251.160156 3036.6875 1246.019531 C 3027.335938 1239.46875 3024.433594 1242.609375 3022.492188 1246.019531 C 3020.570312 1249.417969 2986.375 1276.21875 2980.570312 1277.75 C 2974.761719 1279.28125 2960.90625 1285.789062 2958.324219 1299.949219 C 2955.742188 1314.109375 3024.113281 1308.75 3028.617188 1307.601562 C 3033.140625 1306.449219 3033.140625 1301.859375 3036.367188 1302.628906 C 3037.96875 1303.011719 3038.777344 1304.148438 3039.195312 1305.199219 C 3039.683594 1306.5 3040.832031 1307.25 3042.019531 1307.28125 C 3048.808594 1307.449219 3067.621094 1307.851562 3068.9375 1307.21875 C 3070.558594 1306.449219 3071.089844 1286.25 3070.671875 1275.871094 C 3070.449219 1270.878906 3072.613281 1250.828125 3070.882812 1250.179688" fill="#3d3b42"/></g><g><path d="M 3160.855469 1224.011719 L 3158.378906 1260.738281 C 3158.378906 1260.738281 3164.566406 1266.519531 3176.542969 1265.679688 C 3188.519531 1264.851562 3194.390625 1272.058594 3197.375 1266.640625 C 3200.359375 1261.230469 3199.847656 1231.878906 3199.847656 1231.878906 L 3160.855469 1224.011719" fill="#ffb49c"/></g><g><path d="M 3199.625 1249.839844 C 3192.769531 1247.269531 3173.011719 1251.160156 3165.667969 1246.019531 C 3156.316406 1239.46875 3153.410156 1242.609375 3151.484375 1246.019531 C 3149.542969 1249.417969 3115.367188 1276.21875 3109.554688 1277.75 C 3103.761719 1279.28125 3089.875 1285.789062 3087.300781 1299.949219 C 3084.730469 1314.109375 3153.097656 1308.75 3157.613281 1307.601562 C 3162.132812 1306.449219 3162.132812 1301.859375 3165.351562 1302.628906 C 3166.941406 1303.011719 3167.769531 1304.148438 3168.160156 1305.199219 C 3168.671875 1306.5 3169.808594 1307.25 3171.007812 1307.28125 C 3177.785156 1307.449219 3196.601562 1307.851562 3197.914062 1307.21875 C 3199.527344 1306.449219 3200.074219 1286.25 3199.644531 1275.871094 C 3199.429688 1270.878906 3201.351562 1250.480469 3199.625 1249.839844" fill="#3d3b42"/></g><g clip-path="url(#b)"><path d="M 3120.21875 986.605469 L 3334.5625 986.605469 C 3348.660156 986.605469 3360.082031 975.179688 3360.082031 961.085938 L 3360.082031 842.839844 C 3360.082031 828.746094 3348.660156 817.324219 3334.5625 817.324219 L 3120.21875 817.324219 C 3106.136719 817.324219 3094.699219 828.746094 3094.699219 842.839844 L 3094.699219 961.085938 C 3094.699219 975.179688 3106.136719 986.605469 3120.21875 986.605469" fill="#6077b3"/></g><g><path d="M 3250.546875 738.515625 C 3250.546875 738.515625 3250.769531 743.847656 3251.867188 762.722656 C 3252.964844 781.601562 3257.082031 791.46875 3246.691406 800.351562 C 3237.121094 808.539062 3209.585938 801.890625 3209.585938 801.890625 L 3216.359375 740.421875 C 3216.359375 740.421875 3225.808594 726.550781 3226.847656 726.640625 C 3227.867188 726.730469 3250.546875 738.515625 3250.546875 738.515625" fill="#f57a64"/></g><g><path d="M 3255.34375 736.074219 L 3255.964844 752.25 C 3256.105469 755.707031 3254.027344 758.832031 3250.832031 760.117188 C 3244.878906 762.5 3234.949219 765.292969 3225.800781 762.226562 C 3211.578125 757.464844 3204.566406 748.628906 3203.667969 744.539062 C 3202.789062 740.453125 3205.164062 725.535156 3205.164062 725.535156 L 3255.34375 736.074219" fill="#f8e8e5"/></g><g><path d="M 3192.851562 817.324219 C 3193.636719 798.917969 3208.796875 784.230469 3227.394531 784.230469 C 3245.992188 784.230469 3261.152344 798.917969 3261.933594 817.324219 L 3273.382812 817.324219 C 3272.597656 792.589844 3252.316406 772.777344 3227.394531 772.777344 C 3202.472656 772.777344 3182.191406 792.589844 3181.386719 817.324219 L 3192.851562 817.324219" fill="#6077b3"/></g><g><path d="M 2835.800781 634.464844 L 2827.128906 648.132812 C 2825.269531 651.050781 2825.5 654.796875 2827.625 657.523438 C 2831.554688 662.570312 2838.738281 669.984375 2848.1875 671.941406 C 2862.875 674.984375 2873.367188 670.875 2876.199219 667.789062 C 2879.03125 664.703125 2884.464844 650.613281 2884.464844 650.613281 L 2835.800781 634.464844" fill="#f8e8e5"/></g><g><path d="M 3229.394531 316.449219 C 3229.394531 316.449219 3246.253906 353.605469 3255.15625 401.972656 C 3264.078125 450.339844 3270.449219 550.464844 3272.980469 574.222656 C 3275.535156 597.980469 3265.34375 721.441406 3260.261719 734.167969 C 3255.15625 746.898438 3245.632812 744.351562 3229.394531 744.351562 C 3213.15625 744.351562 3197.886719 735.441406 3197.886719 735.441406 L 3174.976562 596.707031 C 3174.976562 596.707031 3194.066406 442.277344 3195.355469 429.125 C 3196.621094 415.972656 3229.394531 316.449219 3229.394531 316.449219" fill="#61344e"/></g><g><path d="M 3222.460938 708.339844 C 3217.519531 814.207031 3201.835938 1230.128906 3201.339844 1238.328125 C 3200.765625 1248.917969 3192.085938 1247.898438 3177.253906 1244.308594 C 3166.039062 1241.578125 3151.347656 1249.039062 3146.363281 1242.191406 C 3141.21875 1235.191406 3117.015625 886.148438 3110.011719 765.308594 C 3109.972656 764.644531 3109.65625 764.238281 3109.242188 764.035156 C 3108.46875 763.679688 3107.402344 764.085938 3107.34375 765.308594 C 3107.34375 765.308594 3107.34375 765.5625 3107.304688 766.019531 C 3099.414062 910.152344 3080.386719 1231.808594 3079.992188 1238.328125 C 3079.417969 1248.917969 3070.738281 1247.898438 3055.925781 1244.308594 C 3044.691406 1241.578125 3029.800781 1244.328125 3024.816406 1237.488281 C 3018.902344 1229.417969 2987.914062 728.398438 2986.785156 685.222656 C 2985.636719 642.050781 2994.417969 608.171875 2994.417969 608.171875 L 3110.527344 608.171875 L 3110.585938 637.164062 C 3112.839844 619.394531 3115.769531 608.171875 3115.769531 608.171875 C 3115.769531 608.171875 3217.359375 610.105469 3217.417969 610.410156 C 3217.417969 610.410156 3220.347656 624.460938 3221.988281 649.101562 C 3223.054688 664.832031 3223.570312 684.894531 3222.460938 708.339844" fill="#9390a1"/></g><g><path d="M 2996.46875 117.160156 C 2996.46875 117.160156 2999.40625 250.34375 3040.941406 246.648438 C 3067.417969 244.292969 3124.722656 230.332031 3125.929688 226.789062 C 3127.140625 223.246094 3101.375 100.65625 3101.375 100.65625 L 2996.46875 117.160156" fill="#ff8c78"/></g><g><path d="M 3136.136719 285.484375 C 3135.328125 286.957031 3121.550781 306.457031 3121.550781 306.457031 L 3070.066406 303.011719 L 3054.289062 236.402344 L 3124.804688 215.160156 C 3124.804688 215.160156 3134.75 287.089844 3136.117188 285.488281 L 3136.136719 285.484375" fill="#ff8c78"/></g><g><path d="M 3222.460938 708.339844 C 3217.519531 814.207031 3201.835938 1230.128906 3201.339844 1238.328125 C 3200.765625 1248.917969 3192.085938 1247.898438 3177.253906 1244.308594 C 3166.039062 1241.578125 3151.347656 1249.039062 3146.363281 1242.191406 C 3141.21875 1235.191406 3117.015625 886.148438 3110.011719 765.308594 C 3109.972656 764.644531 3109.65625 764.238281 3109.242188 764.035156 C 3117.015625 758.96875 3134.023438 760.9375 3155.953125 736.53125 C 3182.257812 707.253906 3173.773438 654.222656 3173.773438 654.222656 C 3173.773438 654.222656 3220.5625 649.433594 3221.988281 649.101562 C 3223.054688 664.832031 3223.570312 684.894531 3222.460938 708.339844" fill="#9390a1"/></g><g><path d="M 3036.265625 283.855469 C 3036.265625 283.855469 3048.554688 255.175781 3054.296875 250.507812 C 3060.015625 245.839844 3086.738281 239.902344 3099.472656 240.324219 C 3112.203125 240.75 3129.128906 239.902344 3136.144531 247.539062 C 3143.179688 255.175781 3149.535156 277.660156 3149.535156 277.660156 L 3036.265625 283.855469" fill="#f8e8e5"/></g><g><path d="M 2972.027344 332.691406 C 2971.671875 322.085938 2977.339844 311.988281 2987.324219 305.460938 C 3011.386719 289.753906 3058.625 262.554688 3099.453125 260.796875 C 3157.09375 258.316406 3220.914062 303.394531 3229.40625 316.445312 C 3237.898438 329.492188 3222.308594 475.402344 3222.308594 500.3125 C 3222.308594 525.226562 3241.859375 644.75 3231.933594 657.796875 C 3222.007812 670.847656 3176.601562 684.972656 3122.765625 682.601562 C 3068.90625 680.230469 2992.355469 674.691406 2982.609375 665.203125 C 2972.863281 655.714844 2986.6875 538.273438 2986.6875 492.207031 C 2986.6875 457.265625 2973.320312 371.078125 2972.027344 332.691406" fill="#74425f"/></g><g><path d="M 2987.3125 305.464844 C 2987.3125 305.464844 2966.25 317 2958.609375 335.9375 C 2950.96875 354.878906 2890.167969 501.324219 2904.1875 526.78125 C 2918.183594 552.238281 2948.621094 565.28125 2956.074219 557.25 C 2990.277344 520.339844 3001.589844 465.128906 3012.863281 432.851562 C 3026.023438 395.183594 3031.949219 367.742188 3031.949219 367.742188 C 3038.027344 338.9375 3015.214844 314.847656 2987.3125 305.464844" fill="#74425f"/></g><g><path d="M 2829.46875 631.527344 C 2825.984375 638.4375 2832.519531 646.898438 2838.488281 651.824219 C 2843.214844 655.726562 2849.328125 659.414062 2855.792969 659.84375 C 2870.066406 660.796875 2888.648438 659.203125 2894.214844 653.5 C 2899.800781 647.796875 2975.351562 529.960938 2975.351562 529.960938 L 2966.5 519.410156 L 2917.179688 512.445312 L 2904.183594 502.78125 L 2829.46875 631.527344" fill="#74425f"/></g><g><path d="M 3023.976562 322.710938 C 3015.789062 311.355469 3002.242188 305.175781 2988.5625 309.183594 C 2985.4375 310.105469 2986.777344 315.019531 2989.921875 314.09375 C 3011.714844 307.703125 3025.78125 329.46875 3027.046875 348.445312 C 3028.144531 364.78125 3024.050781 381.714844 3020.496094 397.554688 C 3012.976562 430.90625 3001.441406 463.140625 2986.515625 493.882812 C 2985.082031 496.816406 2989.476562 499.402344 2990.90625 496.453125 C 3010.484375 456.125 3025.445312 412.335938 3031.179688 367.730469 C 3033.132812 352.582031 3033.300781 335.671875 3023.976562 322.710938" fill="#61344e"/></g><g><path d="M 3145.027344 106.242188 C 3142.84375 97.019531 3137.203125 89.582031 3129.628906 84.566406 C 3129.476562 76.683594 3128.105469 68.773438 3123.332031 64.070312 C 3116.761719 57.589844 3106.929688 58.40625 3098.449219 58.949219 C 3094.199219 59.222656 3089.96875 59.5 3085.738281 58.78125 C 3079.632812 57.742188 3073.699219 55.804688 3067.578125 54.859375 C 3055.832031 53.050781 3044.625 56.78125 3036.492188 65.535156 C 3037.476562 64.480469 3027.71875 60.820312 3026.832031 60.695312 C 3023.160156 60.183594 3019.199219 60.859375 3015.644531 61.882812 C 2996.695312 67.371094 2986.800781 87.5 2988.542969 106.246094 C 2988.945312 110.605469 2990.300781 120.03125 2995.070312 121.710938 C 2995.574219 121.894531 2997.253906 121.703125 2997.601562 122.132812 C 3002.066406 127.75 3007.261719 133.289062 3013.519531 137.097656 C 3020.996094 141.652344 3028.417969 141.507812 3036.742188 142.878906 C 3045.03125 144.242188 3049.859375 151.195312 3052.351562 158.703125 C 3056.199219 170.339844 3060.929688 182.003906 3069.101562 191.328125 C 3076.675781 199.96875 3086.78125 206.597656 3097.753906 210.300781 C 3097.039062 212.773438 3098.410156 215.746094 3101.519531 215.003906 C 3112.839844 212.308594 3128.894531 217.601562 3136.855469 206.296875 C 3140.160156 201.578125 3140.121094 195.980469 3139.90625 190.457031 C 3139.503906 179.472656 3138.382812 169.046875 3139.308594 157.96875 C 3140.699219 141.207031 3149.046875 123.015625 3145.027344 106.242188" fill="#c24e30"/></g><g><path d="M 3049.210938 214.300781 C 3047.558594 210.863281 3045.964844 207.40625 3044.742188 203.835938 C 3039.074219 187.414062 3034.027344 171.011719 3030.480469 154.058594 C 3029.523438 149.488281 3029.183594 142.347656 3025.148438 138.953125 C 3023.648438 137.691406 3021.339844 138.207031 3020.4375 139.898438 C 3018.636719 143.292969 3021.058594 148.511719 3022.257812 151.738281 C 3027.027344 164.769531 3030.140625 178.265625 3031.980469 191.898438 C 3033.21875 201.011719 3035.566406 215.089844 3021.714844 218.765625 C 3019.574219 219.332031 3017.304688 219.460938 3015.109375 219.28125 C 3014.46875 219.226562 3013.851562 219.550781 3013.511719 220.003906 C 3013.175781 220.242188 3012.96875 220.597656 3013.101562 221.089844 C 3015.597656 231.121094 3020.328125 248.398438 3034.347656 250.601562 C 3046.46875 252.503906 3059.234375 246.867188 3057.65625 235.136719 C 3057.019531 230.410156 3054.765625 225.996094 3052.757812 221.640625 C 3051.59375 219.183594 3050.394531 216.75 3049.210938 214.300781" fill="#c24e30"/></g><g><path d="M 2728.113281 718.292969 C 2728.113281 718.292969 2725.234375 719.53125 2723.410156 735.03125 C 2721.570312 750.527344 2712.347656 763.859375 2712.347656 763.859375 L 2708.230469 701.570312 L 2728.113281 718.292969" fill="#c46e49"/></g><g><path d="M 2732.386719 850.734375 C 2732.386719 850.734375 2770.089844 823.714844 2775.714844 828.160156 C 2781.339844 832.601562 2794.78125 858.769531 2791.832031 864.597656 C 2788.882812 870.433594 2747.460938 896.679688 2747.460938 896.679688 L 2732.386719 850.734375" fill="#ff8c78"/></g><g><path d="M 2770.203125 828.410156 C 2770.203125 828.410156 2811.824219 780.058594 2818.367188 781.621094 C 2824.90625 783.183594 2835.011719 794.234375 2832.3125 802.988281 C 2829.636719 811.742188 2812.105469 844.480469 2804.675781 854.324219 C 2797.25 864.171875 2784.34375 871.539062 2784.34375 871.539062 L 2770.203125 828.410156" fill="#ff8c78"/></g><g><path d="M 2813.097656 784.117188 L 2822.144531 765.5 C 2822.144531 765.5 2836.753906 741.632812 2844.207031 743.773438 C 2851.679688 745.914062 2858.675781 761.574219 2854.03125 768.601562 C 2851.1875 772.898438 2831.722656 804.671875 2831.722656 804.671875 L 2818.882812 792.105469 L 2813.097656 784.117188" fill="#ff8c78"/></g><g><path d="M 2706.121094 835.367188 C 2706.121094 835.367188 2731.023438 835.34375 2741.605469 832.074219 C 2752.167969 828.804688 2754.355469 825.359375 2760.097656 828.84375 C 2765.808594 832.324219 2776.695312 863.289062 2781.378906 873.339844 C 2786.0625 883.386719 2757.003906 896.542969 2744.234375 903.085938 C 2727.878906 911.46875 2709.128906 920.980469 2709.128906 920.980469 C 2709.128906 920.980469 2698.460938 900.117188 2698.460938 898.792969 C 2698.460938 897.472656 2701.539062 847.734375 2701.539062 847.734375 L 2706.121094 835.367188" fill="#ffbf7d"/></g><g><path d="M 2534.355469 835.445312 C 2534.355469 835.445312 2490.121094 821.519531 2486.15625 827.492188 C 2482.191406 833.464844 2477.558594 862.519531 2482.191406 867.140625 C 2486.808594 871.761719 2534.355469 883.800781 2534.355469 883.800781 L 2534.355469 835.445312" fill="#ff8c78"/></g><g><path d="M 2608.289062 1263.609375 L 2606.738281 1286.710938 C 2606.738281 1286.710938 2610.617188 1290.351562 2618.144531 1289.820312 C 2625.6875 1289.289062 2629.386719 1293.828125 2631.261719 1290.417969 C 2633.132812 1287.019531 2632.8125 1268.558594 2632.8125 1268.558594 L 2608.289062 1263.609375" fill="#ff8c78"/></g><g><path d="M 2632.835938 1280.070312 C 2628.519531 1278.460938 2615.933594 1280.679688 2611.3125 1277.449219 C 2605.445312 1273.328125 2603.601562 1275.308594 2602.390625 1277.449219 C 2601.179688 1279.589844 2579.671875 1296.449219 2576.019531 1297.410156 C 2572.367188 1298.371094 2563.640625 1302.46875 2562.007812 1311.371094 C 2560.394531 1320.28125 2630.78125 1316.339844 2631.605469 1315.949219 C 2632.625 1315.46875 2632.964844 1302.761719 2632.6875 1296.230469 C 2632.558594 1293.089844 2633.917969 1280.46875 2632.835938 1280.070312" fill="#74425f"/></g><g><path d="M 2714.503906 1260.078125 L 2718.15625 1282.949219 C 2718.15625 1282.949219 2714.621094 1286.917969 2707.066406 1287.078125 C 2699.511719 1287.238281 2696.242188 1292.089844 2694.058594 1288.871094 C 2691.890625 1285.648438 2690.539062 1267.238281 2690.539062 1267.238281 L 2714.503906 1260.078125" fill="#ff8c78"/></g><g><path d="M 2691.546875 1278.699219 C 2695.6875 1276.699219 2708.421875 1277.78125 2712.734375 1274.140625 C 2718.214844 1269.511719 2720.21875 1271.308594 2721.628906 1273.328125 C 2723.039062 1275.359375 2745.976562 1290.191406 2749.691406 1290.820312 C 2753.429688 1291.449219 2762.476562 1294.730469 2764.90625 1303.460938 C 2767.332031 1312.179688 2696.875 1314.640625 2696.027344 1314.320312 C 2694.957031 1313.941406 2693.480469 1301.308594 2693.15625 1294.78125 C 2693.003906 1291.640625 2690.507812 1279.210938 2691.546875 1278.699219" fill="#74425f"/></g><g><path d="M 2199.769531 1298.210938 C 2198.714844 1299.578125 2195.011719 1300.949219 2189.601562 1302.269531 C 2189.464844 1302.058594 2189.371094 1301.878906 2189.222656 1301.75 C 2188.722656 1301.191406 2186.652344 1302.039062 2183.351562 1303.621094 C 2156.765625 1308.851562 2107.402344 1312.941406 2101.992188 1312.46875 C 2100.558594 1312.339844 2099.492188 1311.988281 2098.664062 1311.46875 C 2097.976562 1307.769531 2098.828125 1303.089844 2100.800781 1298.949219 C 2104.238281 1295.75 2117.261719 1289.089844 2130.351562 1281.648438 C 2143.847656 1274.011719 2157.398438 1265.511719 2160.589844 1259.039062 C 2169.394531 1241.210938 2155.316406 1188.597656 2155.316406 1188.597656 L 2198.890625 1178.480469 C 2198.890625 1178.480469 2200.960938 1224.328125 2202.882812 1250.667969 C 2203.367188 1257.269531 2203.800781 1263.769531 2203.988281 1269.761719 C 2204.394531 1282.519531 2203.679688 1293.140625 2199.769531 1298.210938" fill="#ff8c78"/></g><g><path d="M 2285.382812 1298.210938 C 2286.421875 1299.578125 2290.128906 1300.949219 2295.53125 1302.269531 C 2295.679688 1302.058594 2295.78125 1301.878906 2295.914062 1301.75 C 2296.410156 1301.191406 2298.492188 1302.039062 2301.800781 1303.621094 C 2328.367188 1308.851562 2377.734375 1312.941406 2383.140625 1312.46875 C 2384.574219 1312.339844 2385.660156 1311.988281 2386.480469 1311.46875 C 2387.167969 1307.769531 2386.316406 1303.089844 2384.339844 1298.949219 C 2380.914062 1295.75 2367.894531 1289.089844 2354.773438 1281.648438 C 2341.285156 1274.011719 2327.738281 1265.511719 2324.53125 1259.039062 C 2315.742188 1241.210938 2316.652344 1185.839844 2316.652344 1185.839844 L 2273.066406 1175.71875 C 2273.066406 1175.71875 2274.386719 1207.417969 2281.3125 1245.5 C 2282.511719 1252.011719 2281.328125 1263.769531 2281.152344 1269.761719 C 2280.742188 1282.519531 2281.472656 1293.140625 2285.382812 1298.210938" fill="#ff8c78"/></g><g><path d="M 2278.550781 1288.941406 C 2279.339844 1294.460938 2284.160156 1315.53125 2284.628906 1315.738281 C 2285.597656 1316.128906 2296.351562 1315.871094 2301.128906 1315.269531 C 2301.378906 1315.238281 2298.59375 1302.890625 2303.972656 1304.179688 C 2320.808594 1308.21875 2324.878906 1316.328125 2343.796875 1317.148438 C 2369.410156 1318.28125 2384.179688 1315.589844 2385.539062 1313.289062 C 2386.082031 1312.339844 2386.492188 1311.46875 2386.699219 1310.21875 C 2387.402344 1306.53125 2388.324219 1303.378906 2384.339844 1298.949219 C 2380.910156 1295.75 2367.886719 1289.089844 2354.769531 1281.648438 C 2354.726562 1284.710938 2353.703125 1289.570312 2347.546875 1290.5 C 2338.476562 1291.890625 2327.679688 1291.449219 2294.300781 1279.929688 C 2284.703125 1276.628906 2281.144531 1269.761719 2281.144531 1269.761719 C 2281.144531 1269.761719 2277.789062 1283.417969 2278.550781 1288.941406" fill="#d5514d"/></g><g><path d="M 2321.703125 1186.390625 C 2320.804688 1191.671875 2309.367188 1204.011719 2299.140625 1206.648438 C 2288.957031 1209.289062 2263.597656 1205.78125 2260.054688 1196.960938 C 2256.542969 1188.160156 2222.527344 791.117188 2220.757812 778.121094 C 2219.386719 767.925781 2214.203125 760.054688 2209.503906 760.109375 C 2208.21875 760.136719 2206.949219 760.742188 2205.804688 762.0625 C 2200.523438 768.242188 2207.675781 1181.351562 2207.675781 1189.269531 C 2207.675781 1197.191406 2186.554688 1204.878906 2176.859375 1204.878906 C 2167.191406 1204.878906 2152.210938 1204.878906 2148.257812 1189.929688 C 2144.257812 1174.960938 2091.777344 764.464844 2098.519531 676.648438 C 2101.058594 643.449219 2143.628906 587.746094 2143.628906 587.746094 L 2193.210938 575.753906 L 2220.015625 569.257812 L 2297.214844 619.175781 C 2297.214844 619.175781 2324.558594 692.070312 2326.53125 719.804688 C 2327.671875 735.808594 2322.574219 1181.109375 2321.703125 1186.390625" fill="#6077b3"/></g><g><path d="M 2381.992188 479.007812 C 2374.941406 507.191406 2356.445312 507.613281 2352.488281 530.960938 C 2348.53125 554.28125 2336.644531 557.371094 2301 562.417969 C 2277.828125 565.691406 2225.269531 559.222656 2180.183594 549.714844 C 2155.914062 544.589844 2222.527344 352.398438 2222.085938 331.164062 C 2221.664062 309.902344 2216.824219 330.3125 2164.488281 216.054688 C 2143.367188 169.917969 2199.648438 132.832031 2220.035156 133.125 C 2242.460938 133.464844 2271.347656 126.019531 2299.078125 165.503906 C 2324.15625 201.1875 2318.867188 237.765625 2315.039062 256.4375 C 2313.984375 261.484375 2313.0625 265.234375 2312.871094 267.292969 C 2312.796875 268.058594 2312.871094 268.851562 2313.0625 269.726562 C 2315.347656 279.8125 2334.503906 296.691406 2340.175781 316.417969 C 2346.332031 337.839844 2341.054688 349.59375 2348.53125 361.027344 C 2356.035156 372.492188 2389.042969 450.828125 2381.992188 479.007812" fill="#c46e49"/></g><g><path d="M 2179.832031 350.726562 C 2179.832031 350.726562 2131.929688 372.367188 2115.199219 410.964844 C 2098.46875 449.5625 2051.808594 556.789062 2065.90625 574.488281 C 2079.988281 592.1875 2100.675781 580.394531 2111.242188 564.824219 C 2121.804688 549.257812 2163.625 454.84375 2163.625 454.84375 L 2179.832031 350.726562" fill="#ff8c78"/></g><g><path d="M 2195.53125 188.847656 C 2179.304688 190.742188 2167.125 204.515625 2167.179688 220.851562 C 2167.277344 250.816406 2172.285156 295.53125 2199.480469 311.699219 C 2221.144531 324.582031 2271.414062 307.34375 2272.796875 304.078125 C 2274.191406 300.816406 2261.285156 181.179688 2261.285156 181.179688 L 2195.53125 188.847656" fill="#ff8c78"/></g><g><path d="M 2191.425781 279.207031 C 2189.339844 279.449219 2188.015625 281.664062 2188.929688 283.542969 C 2191.699219 289.304688 2198.828125 292.917969 2206.683594 292.003906 C 2214.535156 291.085938 2220.660156 285.925781 2222.023438 279.683594 C 2222.472656 277.644531 2220.671875 275.792969 2218.601562 276.035156 L 2191.425781 279.207031" fill="#fff"/></g><g><path d="M 2409.652344 559.828125 C 2409.652344 559.828125 2415.757812 583.335938 2415.121094 611.566406 C 2414.484375 639.199219 2412.511719 716.898438 2412.511719 716.898438 C 2412.511719 716.898438 2378.144531 726.589844 2381.464844 721.746094 C 2382.292969 720.550781 2375.519531 677.925781 2362.316406 618.691406 C 2356.625 593.15625 2360.582031 564.429688 2361.707031 562.023438 C 2364.820312 555.382812 2409.652344 559.828125 2409.652344 559.828125" fill="#ff8c78"/></g><g><path d="M 2412.503906 716.902344 C 2412.503906 716.902344 2432.757812 748.40625 2431.921875 770.917969 C 2431.566406 780.101562 2418.445312 811.914062 2411.773438 815.605469 C 2405.117188 819.292969 2400.164062 813.988281 2398.460938 810.910156 C 2396.746094 807.828125 2396.402344 763.230469 2392.746094 762.242188 C 2389.074219 761.257812 2389.296875 766.199219 2387.476562 772.238281 C 2385.65625 778.28125 2388.746094 790.390625 2383.492188 789.105469 C 2378.253906 787.820312 2369.761719 758.472656 2374.195312 744.949219 C 2378.625 731.417969 2381.460938 721.75 2381.460938 721.75 L 2412.503906 716.902344" fill="#ff8c78"/></g><g><path d="M 2222.097656 335.125 C 2222.097656 335.125 2182.929688 348.105469 2178.605469 351.484375 C 2144.238281 378.363281 2130.996094 433.628906 2130.835938 448.183594 C 2130.519531 476.140625 2137.039062 518.894531 2136.78125 543.554688 C 2136.78125 543.554688 2130.835938 589.777344 2136.121094 593.738281 C 2138.722656 595.691406 2163.441406 612.855469 2197.738281 620.78125 C 2233.027344 628.933594 2289.859375 620.195312 2297.230469 619.171875 C 2297.230469 619.171875 2300.261719 573.078125 2304.484375 556.402344 C 2308.042969 542.347656 2315.023438 513.523438 2318.789062 491.507812 C 2325.152344 454.265625 2341.136719 414.933594 2318.789062 370.363281 C 2301.148438 335.171875 2222.097656 335.125 2222.097656 335.125" fill="#f5d0c6"/></g><g><path d="M 2276.882812 359.578125 C 2275.988281 360.84375 2261.292969 378.117188 2261.292969 378.117188 L 2217.613281 370.140625 L 2215.390625 332.558594 L 2214.386719 315.96875 L 2213.785156 305.539062 L 2272.203125 292.148438 C 2272.203125 292.148438 2275.429688 360.972656 2276.855469 359.578125 L 2276.882812 359.578125" fill="#ff8c78"/></g><g><path d="M 2308.925781 318.339844 C 2308.925781 318.339844 2286.050781 326.265625 2266.671875 301.59375 C 2257.109375 289.394531 2254.050781 273.492188 2251.925781 259.203125 C 2250.851562 251.835938 2250.015625 244.890625 2248.625 239.132812 C 2247.335938 233.507812 2245.523438 229.015625 2242.480469 226.296875 C 2238.808594 222.996094 2232.28125 224.632812 2213.792969 214.066406 C 2195.308594 203.5 2186.949219 191.273438 2186.949219 191.273438 C 2186.949219 191.273438 2209.007812 170.859375 2213.792969 169.988281 C 2218.582031 169.113281 2261.84375 176.140625 2263.160156 176.140625 C 2263.855469 176.140625 2276.519531 215.597656 2288.332031 252.945312 C 2290.046875 258.359375 2291.757812 263.71875 2293.375 268.898438 C 2301.929688 295.945312 2308.925781 318.339844 2308.925781 318.339844" fill="#c46e49"/></g><g><path d="M 2215.9375 341.699219 L 2193.59375 363.234375 L 2183.921875 461.835938 C 2183.921875 461.835938 2237.171875 451.714844 2238.496094 450.832031 C 2239.808594 449.953125 2301.003906 388.328125 2301.003906 386.125 C 2301.003906 383.921875 2286.480469 355.75 2286.480469 355.75 C 2286.480469 355.75 2265.347656 338.144531 2262.269531 337.703125 C 2259.191406 337.261719 2215.9375 341.699219 2215.9375 341.699219" fill="#ff8c78"/></g><g><path d="M 2247.742188 311.582031 C 2246.195312 315.96875 2240.082031 322.886719 2232.121094 327.195312 C 2226.242188 330.390625 2220.101562 331.867188 2215.394531 332.554688 L 2214.402344 315.96875 C 2216.800781 315.8125 2225.910156 314.992188 2233.859375 311.582031 C 2243.132812 307.621094 2249.285156 307.171875 2247.742188 311.582031" fill="#f57a64"/></g><g><path d="M 2206.65625 1288.859375 C 2205.871094 1294.378906 2201.0625 1315.449219 2200.589844 1315.660156 C 2199.613281 1316.050781 2188.859375 1315.789062 2184.09375 1315.191406 C 2183.835938 1315.160156 2186.613281 1302.808594 2181.234375 1304.101562 C 2164.402344 1308.140625 2160.328125 1316.25 2141.421875 1317.070312 C 2115.800781 1318.199219 2101.023438 1315.511719 2099.683594 1313.210938 C 2099.128906 1312.261719 2098.722656 1311.390625 2098.503906 1310.140625 C 2097.816406 1306.449219 2096.894531 1303.300781 2100.875 1298.871094 C 2104.300781 1295.667969 2117.328125 1289.019531 2130.4375 1281.570312 C 2130.492188 1284.628906 2131.523438 1289.488281 2137.671875 1290.417969 C 2146.730469 1291.820312 2157.523438 1291.371094 2190.917969 1279.851562 C 2200.507812 1276.550781 2204.070312 1269.679688 2204.070312 1269.679688 C 2204.070312 1269.679688 2207.425781 1283.339844 2206.65625 1288.859375" fill="#d5514d"/></g><g><path d="M 2297.210938 619.171875 C 2297.210938 619.171875 2303.386719 663.730469 2272.90625 709.953125 C 2242.410156 756.171875 2223.769531 819.5625 2178.28125 859.179688 C 2132.808594 898.792969 2135.761719 1008.769531 2117.121094 1010.570312 C 2098.46875 1012.371094 2101.253906 913.324219 2089.960938 838.050781 C 2078.65625 762.777344 2075.507812 688.5625 2096.703125 643.484375 C 2114.183594 606.335938 2135.71875 587.746094 2135.71875 587.746094 L 2198.84375 587.746094 L 2297.210938 619.171875" fill="#f5d0c6"/></g><g><path d="M 2215.933594 341.695312 C 2215.933594 341.695312 2198.4375 365.710938 2192.671875 397.414062 C 2185.632812 436.148438 2197.121094 454.640625 2204.386719 454.640625 C 2211.65625 454.640625 2232.195312 441.988281 2246.984375 414.160156 C 2267.648438 375.289062 2275.3125 346.714844 2275.3125 346.714844 C 2275.3125 346.714844 2287.863281 353.414062 2289.632812 353.0625 C 2291.390625 352.710938 2308.925781 383.765625 2308.925781 383.765625 C 2308.925781 383.765625 2290.398438 442.3125 2287.75 445.394531 C 2285.101562 448.476562 2239.84375 474.695312 2229.25 475.230469 C 2218.636719 475.769531 2179.910156 479.539062 2174.175781 475.230469 C 2168.453125 470.925781 2164.738281 474.007812 2163.523438 452.878906 C 2162.304688 431.75 2158.578125 405.777344 2163.523438 395.210938 C 2168.453125 384.648438 2177.261719 372.761719 2180.789062 367.039062 C 2184.300781 361.316406 2186.949219 350.136719 2191.34375 348.023438 C 2195.746094 345.910156 2215.933594 341.695312 2215.933594 341.695312" fill="#f5d0c6"/></g><g><path d="M 2087.46875 529.46875 L 2081.117188 583.335938 C 2081.117188 583.335938 2131.398438 582.082031 2172.457031 580.535156 L 2175.070312 541.15625 C 2136.867188 536.589844 2087.46875 529.46875 2087.46875 529.46875" fill="#ff8c78"/></g><g><path d="M 2089.058594 733.203125 L 2254.929688 733.203125 C 2269.542969 733.203125 2281.398438 721.347656 2281.398438 706.726562 L 2268.199219 620.09375 C 2268.199219 605.472656 2256.34375 593.621094 2241.71875 593.621094 L 2102.257812 593.621094 C 2087.632812 593.621094 2075.792969 605.472656 2075.792969 620.09375 L 2062.578125 706.726562 C 2062.578125 721.347656 2074.433594 733.203125 2089.058594 733.203125" fill="#61344e"/></g><g><path d="M 2135.535156 593.601562 C 2136.351562 565.695312 2152.074219 540.785156 2171.382812 540.785156 C 2190.671875 540.785156 2206.410156 565.695312 2207.214844 593.601562 L 2219.097656 593.601562 C 2218.296875 556.101562 2197.234375 526.058594 2171.382812 526.058594 C 2145.515625 526.058594 2124.464844 556.101562 2123.664062 593.601562 L 2135.535156 593.601562" fill="#61344e"/></g><g><path d="M 2213.796875 544.878906 C 2206.464844 544.675781 2191.859375 543.160156 2175.066406 541.15625 L 2172.460938 580.535156 C 2199.628906 579.511719 2222.773438 578.359375 2224.628906 577.355469 C 2229.296875 574.839844 2237.792969 545.535156 2213.796875 544.878906" fill="#ff8c78"/></g><g><path d="M 2217.492188 545.246094 C 2217.492188 545.246094 2241.132812 546.695312 2255.839844 560.285156 C 2263.484375 567.359375 2278.722656 599.285156 2278.597656 608.046875 C 2278.597656 608.136719 2278.597656 608.222656 2278.597656 608.3125 C 2278.261719 618.027344 2266.839844 623.179688 2259 617.457031 C 2249.519531 610.539062 2236 600.675781 2228.394531 595.058594 C 2215.828125 585.78125 2215.367188 568.789062 2215.367188 568.789062 L 2217.492188 545.246094" fill="#ff8c78"/></g><g><path d="M 2300.480469 351.898438 C 2300.480469 351.898438 2341.015625 369.566406 2357.742188 408.164062 C 2374.464844 446.761719 2421.121094 553.988281 2407.039062 571.683594 C 2392.945312 589.386719 2372.265625 577.59375 2361.707031 562.027344 C 2355.691406 553.167969 2333.097656 508.109375 2314.738281 470.894531 C 2298.179688 437.34375 2292.5625 399.449219 2298.710938 362.542969 L 2300.480469 351.898438" fill="#ff8c78"/></g><g><path d="M 2690.757812 690.222656 C 2706.363281 691.300781 2718.632812 703.925781 2719.316406 719.558594 C 2720.585938 748.234375 2717.8125 791.246094 2692.527344 807.945312 C 2672.382812 821.25 2623.511719 807.03125 2622.027344 803.972656 C 2621.109375 802.0625 2623.460938 756.550781 2625.347656 722.59375 C 2626.480469 702.382812 2643.90625 686.996094 2664.121094 688.386719 L 2690.757812 690.222656" fill="#ff8c78"/></g><g><path d="M 2678.546875 805.761719 L 2677.742188 813.164062 L 2677.445312 815.710938 L 2676 828.855469 L 2675.703125 831.546875 L 2671.757812 867.402344 L 2629.609375 872.917969 C 2629.609375 872.917969 2616.660156 856.058594 2615.640625 854.476562 C 2616.988281 854.414062 2623.496094 757.175781 2623.496094 757.175781 L 2678.546875 805.761719" fill="#ff8c78"/></g><g><path d="M 2709.125 920.984375 L 2709.125 921.007812 C 2705.660156 947.179688 2701.34375 971.324219 2697.007812 977.371094 C 2687.109375 991.238281 2594 993.878906 2582.117188 969.445312 C 2577.550781 960.015625 2575 939.285156 2573.898438 916.730469 C 2573.847656 915.671875 2573.800781 914.644531 2573.765625 913.585938 C 2573.582031 909.652344 2573.449219 905.660156 2573.382812 901.699219 C 2572.683594 870.296875 2574.382812 839.367188 2576.832031 833.425781 C 2577.882812 830.835938 2581.53125 828.9375 2586.730469 827.5625 C 2586.78125 827.535156 2586.867188 827.535156 2586.933594 827.507812 C 2588.265625 827.140625 2589.730469 826.824219 2591.28125 826.535156 C 2592.28125 826.375 2593.316406 826.1875 2594.363281 826.058594 C 2594.53125 826.03125 2594.632812 826.003906 2594.632812 826.003906 C 2600.148438 825.1875 2606.496094 824.738281 2613.046875 824.527344 C 2628.511719 824.050781 2645.164062 824.949219 2654.710938 826.003906 C 2662.976562 826.929688 2673.710938 828.117188 2683.878906 829.863281 C 2691.058594 831.078125 2697.960938 832.554688 2703.507812 834.429688 C 2710.875 836.886719 2715.910156 840.003906 2716.160156 843.992188 C 2716.527344 850.304688 2713.558594 887.332031 2709.125 920.984375" fill="#ffbf7d"/></g><g><path d="M 2601.269531 858.519531 C 2601.269531 860.496094 2588.054688 903.417969 2588.054688 903.417969 C 2588.054688 903.417969 2583.332031 902.863281 2576.101562 902.019531 C 2575.222656 901.910156 2575.046875 912.082031 2574.089844 911.976562 C 2564.515625 910.839844 2550.824219 899.007812 2538.535156 897.476562 C 2522.609375 895.492188 2524.667969 890.871094 2523.339844 878.324219 C 2522.03125 865.78125 2517.421875 829.320312 2532.820312 828.84375 C 2545.765625 828.445312 2574.121094 829.941406 2586.746094 827.5625 C 2586.792969 827.535156 2586.875 827.535156 2586.921875 827.507812 C 2588.613281 827.191406 2590.066406 826.902344 2591.261719 826.691406 C 2592.824219 826.375 2593.894531 826.160156 2594.375 826.058594 C 2594.535156 826.03125 2594.644531 826.003906 2594.644531 826.003906 C 2594.644531 826.003906 2601.269531 856.535156 2601.269531 858.519531" fill="#ffbf7d"/></g><g><path d="M 2573.234375 916.328125 C 2573.234375 916.328125 2561.980469 978.539062 2561.980469 1026.109375 C 2561.980469 1093.578125 2592.910156 1268.160156 2595.324219 1269.679688 C 2597.753906 1271.199219 2622.898438 1274.449219 2636.097656 1269.761719 C 2649.296875 1265.078125 2643.476562 1110.96875 2644.703125 1107.449219 C 2645.945312 1103.929688 2675.664062 1261.519531 2684.46875 1265.917969 C 2693.277344 1270.320312 2708.925781 1267.019531 2721.4375 1265.261719 C 2733.949219 1263.5 2724.304688 1110.96875 2722.542969 1052.859375 C 2720.785156 994.757812 2709.125 921 2709.125 921 L 2573.234375 916.328125" fill="#d5514d"/></g><g><path d="M 2709.125 920.980469 L 2709.125 921.007812 L 2644.722656 956.242188 L 2573.902344 916.726562 L 2573.21875 916.332031 L 2573.769531 913.585938 L 2576.09375 902.019531 L 2591.253906 826.691406 L 2591.269531 826.535156 C 2592.285156 826.375 2593.3125 826.191406 2594.363281 826.058594 C 2594.527344 826.03125 2594.628906 826.003906 2594.628906 826.003906 C 2600.160156 825.1875 2606.496094 824.738281 2613.042969 824.523438 C 2610.035156 837.757812 2605.464844 864.699219 2611.164062 888.390625 C 2619.09375 921.246094 2660.691406 917.945312 2671.246094 903.417969 C 2679.207031 892.484375 2682.664062 850.144531 2683.878906 829.863281 C 2691.058594 831.078125 2697.957031 832.554688 2703.507812 834.429688 L 2709.125 920.980469" fill="#d5514d"/></g><g><path d="M 2676.117188 784.941406 C 2676.960938 781.300781 2682.667969 776.21875 2689.433594 778.15625 C 2696.230469 780.09375 2687.996094 792.210938 2682.785156 792.453125 C 2677.574219 792.699219 2675.539062 787.386719 2676.117188 784.941406" fill="#fff"/></g><g><path d="M 2618.660156 824.394531 C 2618.660156 824.394531 2630.460938 843.089844 2649.621094 843.089844 C 2668.761719 843.089844 2676.003906 828.855469 2676.003906 828.855469 C 2676.003906 828.855469 2659.519531 819.316406 2658.535156 819.316406 C 2657.550781 819.316406 2636.75 819.976562 2635.09375 819.316406 C 2633.449219 818.65625 2618.660156 824.394531 2618.660156 824.394531" fill="#ff8c78"/></g><g><path d="M 2677.746094 813.164062 L 2677.453125 815.707031 L 2676.023438 828.851562 C 2671.785156 828.207031 2666.691406 826.933594 2661.746094 824.460938 C 2653.992188 820.574219 2647.949219 814.136719 2646.320312 809.960938 C 2644.726562 805.785156 2650.625 806.03125 2659.609375 809.566406 C 2666.722656 812.375 2674.742188 813.042969 2677.746094 813.164062" fill="#f57a64"/></g><g><path d="M 2644.789062 994.804688 L 2634.335938 994.175781 C 2619.585938 993.289062 2608.363281 980.621094 2609.25 965.878906 L 2610.429688 946.109375 C 2610.660156 942.285156 2613.941406 939.371094 2617.78125 939.601562 L 2667.777344 942.601562 C 2671.601562 942.832031 2674.503906 946.117188 2674.273438 949.9375 L 2673.09375 969.710938 C 2672.207031 984.453125 2659.539062 995.6875 2644.789062 994.804688" fill="#e87572"/></g><g><path d="M 2491.472656 826.015625 C 2491.472656 826.015625 2436.859375 793.035156 2431.125 796.558594 C 2425.410156 800.078125 2419.25 813.726562 2424.539062 821.207031 C 2429.8125 828.691406 2456.667969 854.335938 2466.785156 861.378906 C 2476.90625 868.421875 2491.472656 871.402344 2491.472656 871.402344 L 2491.472656 826.015625" fill="#ff8c78"/></g><g><path d="M 2436.914062 797.285156 L 2422.519531 782.414062 C 2422.519531 782.414062 2401.214844 764.285156 2394.769531 768.644531 C 2388.339844 773.007812 2386.59375 790.066406 2393.183594 795.296875 C 2397.222656 798.492188 2425.613281 822.625 2425.613281 822.625 L 2433.910156 806.683594 L 2436.914062 797.285156" fill="#ff8c78"/></g><g><path d="M 2659.039062 676.121094 C 2659.039062 676.121094 2631.875 678.300781 2621.820312 694.660156 C 2611.769531 711.019531 2617.953125 730.265625 2618.695312 743.015625 C 2620.679688 777.730469 2637.589844 750.917969 2642.3125 731.378906 C 2644.765625 721.253906 2654.195312 703.023438 2695.75 710.292969 C 2721.371094 714.773438 2724.546875 721.023438 2728.109375 718.292969 C 2732.230469 715.140625 2740.046875 703.464844 2726.414062 688.300781 C 2708.761719 668.652344 2659.039062 676.121094 2659.039062 676.121094" fill="#c46e49"/></g><g><path d="M 2707.265625 682.421875 C 2704.109375 682.179688 2697.136719 669.574219 2670.695312 664.488281 C 2644.253906 659.398438 2632.875 668.609375 2627.542969 676.605469 C 2622.195312 684.605469 2620.683594 696.695312 2620.683594 696.695312 C 2620.683594 696.695312 2648.621094 694.539062 2650.316406 694.539062 C 2652.007812 694.539062 2690.058594 693.085938 2690.058594 693.085938 L 2707.265625 682.421875" fill="#c46e49"/></g><g><path d="M 2883.472656 767.742188 C 2866.050781 778.902344 2859.632812 811.578125 2882.402344 834.351562 C 2904.71875 856.679688 2931.601562 854.363281 2942.386719 839.480469 C 2953.191406 824.597656 2954.898438 805.574219 2937.167969 785.121094 C 2928.449219 775.058594 2901.472656 756.195312 2883.472656 767.742188" fill="#8c4b3c"/></g><g><path d="M 2874.019531 822.039062 C 2870.980469 822.808594 2849.128906 829.496094 2844.652344 850.316406 C 2840.175781 871.140625 2832.226562 930.828125 2842.117188 949.273438 C 2851.988281 967.71875 2884.863281 973.15625 2899.214844 970.777344 C 2913.582031 968.398438 2915.109375 950.996094 2920.792969 916.328125 C 2926.496094 881.65625 2931.277344 883.429688 2929.605469 867.105469 C 2927.140625 843.042969 2913.277344 838.707031 2913.277344 838.707031 L 2874.019531 822.039062" fill="#8c4b3c"/></g><g><path d="M 2837.414062 922.910156 C 2837.414062 922.910156 2830.542969 962.5 2831.210938 981.742188 C 2831.894531 1000.992188 2832.773438 1023.878906 2846.855469 1021.242188 C 2860.949219 1018.601562 2861.917969 997.238281 2860.984375 981.503906 C 2860.070312 965.773438 2864.90625 945.964844 2864.90625 945.964844 L 2837.414062 922.910156" fill="#8c4b3c"/></g><g><path d="M 2914.53125 951.152344 C 2914.53125 951.152344 2917.324219 1002.121094 2912.421875 1015.449219 C 2907.515625 1028.769531 2898.621094 1037.332031 2890.78125 1030.25 C 2882.945312 1023.179688 2887.3125 998.4375 2887.292969 990.75 C 2887.257812 983.0625 2886.328125 965.671875 2886.328125 965.671875 L 2914.53125 951.152344" fill="#8c4b3c"/></g><g><path d="M 2874.015625 822.039062 C 2874.015625 822.039062 2860.933594 795.347656 2860.933594 779.5 C 2860.933594 763.652344 2855.203125 748.6875 2845.964844 754.410156 C 2836.722656 760.132812 2833.179688 799.597656 2837.359375 819.261719 C 2841.574219 838.925781 2844.640625 850.320312 2844.640625 850.320312 L 2874.015625 822.039062" fill="#8c4b3c"/></g><g><path d="M 2923.839844 847.734375 C 2923.839844 847.734375 2937.90625 875.203125 2948.042969 893.160156 C 2958.164062 911.121094 2966.535156 925.210938 2958.164062 928.289062 C 2949.808594 931.371094 2942.328125 924.242188 2933.957031 917.460938 C 2925.585938 910.683594 2903.144531 886.863281 2903.144531 886.863281 L 2900.707031 849.496094 L 2923.839844 847.734375" fill="#8c4b3c"/></g><g><path d="M 2879.078125 773.078125 C 2879.078125 773.078125 2877.617188 754.972656 2890.257812 751.503906 C 2902.898438 748.03125 2908.039062 753.390625 2909.21875 757.863281 C 2910.398438 762.335938 2909.003906 769.910156 2909.003906 769.910156 L 2879.078125 773.078125" fill="#8c4b3c"/></g><g><path d="M 2942.863281 799.710938 C 2943.5 799.832031 2950.414062 791.59375 2958.597656 798.160156 C 2963.636719 802.210938 2964.5625 814.894531 2959.832031 820.28125 C 2953.050781 828.023438 2940.753906 826.699219 2940.753906 826.699219 L 2942.863281 799.710938" fill="#8c4b3c"/></g><g><path d="M 2918.621094 818.390625 C 2918.316406 821.878906 2909.648438 823.976562 2905.476562 820.871094 C 2901.5 817.921875 2899.726562 808.285156 2903.488281 807.46875 C 2907.839844 806.523438 2918.90625 814.902344 2918.621094 818.390625" fill="#2b2827"/></g><g><path d="M 2698.941406 1045.269531 C 2682.976562 1061.589844 2667.011719 1077.898438 2651.046875 1094.21875 C 2648.675781 1096.652344 2652.410156 1100.390625 2654.78125 1097.949219 C 2670.746094 1081.640625 2686.710938 1065.320312 2702.675781 1049.011719 C 2705.050781 1046.570312 2701.316406 1042.828125 2698.941406 1045.269531" fill="#c23c38"/></g></g></svg>