<svg xmlns="http://www.w3.org/2000/svg" width="466.091" height="33.549" viewBox="0 0 466.091 33.549">
  <g id="Group_537" data-name="Group 537" transform="translate(-156.654 -2013.844)">
    <g id="Group_177" data-name="Group 177" transform="translate(-7.12 57.188)">
      <path id="Path_356" data-name="Path 356" d="M629.335,1984.369l.53.131C628.745,1984.217,629.362,1984.377,629.335,1984.369Z" fill="#ef8d46"/>
      <path id="Path_357" data-name="Path 357" d="M618.212,1981.845l.2.019-1.659-.276Z" fill="#ef8d46"/>
      <path id="Path_358" data-name="Path 358" d="M607.743,1979.79c.971.3,3.8.687,5.659,1.114l.3.088.858.074Z" fill="#ef8d46"/>
      <path id="Path_359" data-name="Path 359" d="M602.206,1978.4c.333.14-1.221-.163,1.3.268l-.233-.062Z" fill="#ef8d46"/>
      <path id="Path_360" data-name="Path 360" d="M603.274,1978.6c1.106.2-.713-.2,0,0Z" fill="#ef8d46"/>
      <path id="Path_361" data-name="Path 361" d="M598.16,1977.693l1.469.2c-.3-.1-1.592-.361-1.105-.3C597.024,1977.342,597.323,1977.454,598.16,1977.693Z" fill="#ef8d46"/>
      <path id="Path_362" data-name="Path 362" d="M596.753,1977.612l.762.092A2.475,2.475,0,0,0,596.753,1977.612Z" fill="#ef8d46"/>
      <path id="Path_363" data-name="Path 363" d="M599.126,1977.931l-1.611-.227a1.119,1.119,0,0,0,.739.11C598.113,1977.854,598.439,1977.849,599.126,1977.931Z" fill="#ef8d46"/>
      <path id="Path_364" data-name="Path 364" d="M600.028,1978.129c.81.194,1.862.41.389.216C603.209,1978.816,602.819,1978.615,600.028,1978.129Z" fill="#ef8d46"/>
      <path id="Path_365" data-name="Path 365" d="M607.179,1979.862l1.086.23.955.108C608.743,1980.146,607.119,1979.8,607.179,1979.862Z" fill="#ef8d46"/>
      <path id="Path_366" data-name="Path 366" d="M589.079,1976.036c-.1.042.47.232.569.321l1.089.113A10.038,10.038,0,0,1,589.079,1976.036Z" fill="#ef8d46"/>
      <path id="Path_367" data-name="Path 367" d="M589.648,1976.357l-1.629-.164C589.461,1976.436,589.731,1976.433,589.648,1976.357Z" fill="#ef8d46"/>
      <path id="Path_368" data-name="Path 368" d="M596.454,1977.819c.9.074,1.785.181,2.675.285-1.06-.139-2.121-.264-3.187-.362Z" fill="#ef8d46"/>
      <path id="Path_369" data-name="Path 369" d="M582.908,1975.022l.937-.006-1.664-.026Z" fill="#ef8d46"/>
      <path id="Path_370" data-name="Path 370" d="M578.8,1974.432c.7-.026-.9-.362-.174-.332a26.8,26.8,0,0,0-2.953-.2A20.92,20.92,0,0,1,578.8,1974.432Z" fill="#ef8d46"/>
      <path id="Path_371" data-name="Path 371" d="M574.218,1973.837c.459.034.937.045,1.458.06A14.462,14.462,0,0,0,574.218,1973.837Z" fill="#ef8d46"/>
      <path id="Path_372" data-name="Path 372" d="M585.27,1975.72a4.266,4.266,0,0,0-1.249-.376l.613.271Z" fill="#ef8d46"/>
      <path id="Path_373" data-name="Path 373" d="M584.656,1975.624l-.022-.009-1.374-.213Z" fill="#ef8d46"/>
      <path id="Path_374" data-name="Path 374" d="M585.43,1975.747l-.16-.027A.235.235,0,0,0,585.43,1975.747Z" fill="#ef8d46"/>
      <path id="Path_375" data-name="Path 375" d="M592.237,1977.027c-.961-.07-2.955-.277-1.057.145C591.876,1977.174,590.79,1976.929,592.237,1977.027Z" fill="#ef8d46"/>
      <path id="Path_376" data-name="Path 376" d="M586.191,1976.084l1.711.307c-.027-.048-.328-.16.148-.13Z" fill="#ef8d46"/>
      <path id="Path_377" data-name="Path 377" d="M585.343,1976.006l.848.078-.635-.115Z" fill="#ef8d46"/>
      <path id="Path_378" data-name="Path 378" d="M577.141,1974.455c-.753-.023-1.568-.132-2.488-.25.979.181,1.995.347,2.961.484C577.758,1974.648,578.2,1974.6,577.141,1974.455Z" fill="#ef8d46"/>
      <path id="Path_379" data-name="Path 379" d="M580.791,1975.039l-.166-.014C580.724,1975.056,580.8,1975.073,580.791,1975.039Z" fill="#ef8d46"/>
      <path id="Path_380" data-name="Path 380" d="M565.6,1972.971l.14.06a.268.268,0,0,1,.039-.035Z" fill="#ef8d46"/>
      <path id="Path_381" data-name="Path 381" d="M577.775,1974.749a7.959,7.959,0,0,0,1.612.161c-.556-.061-1.144-.133-1.773-.221C577.549,1974.708,577.535,1974.724,577.775,1974.749Z" fill="#ef8d46"/>
      <path id="Path_382" data-name="Path 382" d="M571.684,1973.562c.38.1.812.2,1.267.3A5.683,5.683,0,0,0,571.684,1973.562Z" fill="#ef8d46"/>
      <path id="Path_383" data-name="Path 383" d="M580.382,1974.938l.112.008C580.257,1974.871,580.284,1974.894,580.382,1974.938Z" fill="#ef8d46"/>
      <path id="Path_384" data-name="Path 384" d="M580.382,1974.938c-.384-.029-.689-.026-.995-.028.452.05.872.09,1.238.115A2.081,2.081,0,0,1,580.382,1974.938Z" fill="#ef8d46"/>
      <path id="Path_385" data-name="Path 385" d="M562.687,1974.116a8.424,8.424,0,0,1,3.785.247c1.675.035.671-.756-.728-1.332-.062.085-.072.167-1.79.079.583.2,3.749.737,2.289.749a9.049,9.049,0,0,1-2.925-.545c.9.378-2.917.049-2.471.515l2,.085C562.873,1973.98,562.143,1974,562.687,1974.116Z" fill="#ef8d46"/>
      <path id="Path_386" data-name="Path 386" d="M568.987,1973.471l.7.066a20.366,20.366,0,0,1-2.391-.593c-1.178-.054-1.429-.007-1.517.052l3.447.476Z" fill="#ef8d46"/>
      <path id="Path_387" data-name="Path 387" d="M572.834,1973.976c-.572.129-2.265-.011-1.263.36a15.223,15.223,0,0,0,2.7.1c-3.32-.412.967.02-1.413-.436.655.058,1.242.131,1.8.2-.594-.11-1.165-.224-1.7-.341l.074.024h.016l0,0c.14.047.185.069.026.031l-.07-.006a.377.377,0,0,1-.159.057c-.955-.18-.144-.076.159-.057.013-.008.04-.014.044-.025l-.012,0-3.334-.351C570.391,1973.652,571.271,1973.778,572.834,1973.976Z" fill="#ef8d46"/>
      <path id="Path_388" data-name="Path 388" d="M589.364,1977.247c-.1-.029-.1-.04-.1-.052C589.046,1977.183,588.963,1977.185,589.364,1977.247Z" fill="#ef8d46"/>
      <path id="Path_389" data-name="Path 389" d="M588.014,1976.952a6.32,6.32,0,0,1,1.235.109c.673.148-.014.076.014.134.478.025,1.668.13.2-.166l-.237-.014a17.044,17.044,0,0,1-2.776-.708A6.986,6.986,0,0,0,588.014,1976.952Z" fill="#ef8d46"/>
      <path id="Path_390" data-name="Path 390" d="M580.323,1975.518l-2.777-.281,1.387.355-.059-.109C580.442,1975.732,580.118,1975.566,580.323,1975.518Z" fill="#ef8d46"/>
      <path id="Path_391" data-name="Path 391" d="M565.3,1972.816l.4-.193-1.639.133Z" fill="#ef8d46"/>
      <path id="Path_392" data-name="Path 392" d="M561.7,1972.376l.158-.2-.965.008Z" fill="#ef8d46"/>
      <path id="Path_393" data-name="Path 393" d="M357.453,1962.382l-.822.081A6.89,6.89,0,0,0,357.453,1962.382Z" fill="#ef8d46"/>
      <path id="Path_394" data-name="Path 394" d="M363.377,1962.628l.151-.186C363.25,1962.537,363.135,1962.61,363.377,1962.628Z" fill="#ef8d46"/>
      <path id="Path_395" data-name="Path 395" d="M473.041,1963.645c-1.168-.429-2.463-1.059-2.347-.637l.339.423A8.222,8.222,0,0,1,473.041,1963.645Z" fill="#ef8d46"/>
      <path id="Path_396" data-name="Path 396" d="M412.026,1962.431l.342.148.826-.374Z" fill="#ef8d46"/>
      <path id="Path_397" data-name="Path 397" d="M411.1,1964.18l-1.558-.354A11.735,11.735,0,0,0,411.1,1964.18Z" fill="#ef8d46"/>
      <path id="Path_398" data-name="Path 398" d="M325.081,1961.742l-.965.375C325.61,1962.164,324.958,1961.938,325.081,1961.742Z" fill="#ef8d46"/>
      <path id="Path_399" data-name="Path 399" d="M524.772,1968.254a22.682,22.682,0,0,0-2.542-.454C523.45,1968.1,524.421,1968.489,524.772,1968.254Z" fill="#ef8d46"/>
      <path id="Path_400" data-name="Path 400" d="M359.939,1957.96c-.505.062-.722.142-.71.237C359.747,1958.14,360.042,1958.067,359.939,1957.96Z" fill="#ef8d46"/>
      <path id="Path_401" data-name="Path 401" d="M519.266,1967.513l.535.13a23.874,23.874,0,0,1,2.429.157A8.028,8.028,0,0,0,519.266,1967.513Z" fill="#ef8d46"/>
      <path id="Path_402" data-name="Path 402" d="M207.694,1960.456l-.267-.013C207.4,1960.466,207.521,1960.465,207.694,1960.456Z" fill="#ef8d46"/>
      <path id="Path_403" data-name="Path 403" d="M173.513,1962.064l1.387-.244Z" fill="#ef8d46"/>
      <path id="Path_404" data-name="Path 404" d="M547.221,1970.474c.767.073.125-.016,0,0Z" fill="#ef8d46"/>
      <path id="Path_405" data-name="Path 405" d="M550.826,1971.971c-.166.012-.294.037-.32.1A.57.57,0,0,1,550.826,1971.971Z" fill="#ef8d46"/>
      <path id="Path_406" data-name="Path 406" d="M511.456,1968.924l-.067-.007C511.611,1969,511.573,1968.987,511.456,1968.924Z" fill="#ef8d46"/>
      <path id="Path_407" data-name="Path 407" d="M548.358,1970.735c-.283-.067-.611-.134-.969-.2C547.545,1970.578,547.839,1970.64,548.358,1970.735Z" fill="#ef8d46"/>
      <path id="Path_408" data-name="Path 408" d="M548.217,1970.588l.665.1C548.983,1970.66,548.9,1970.621,548.217,1970.588Z" fill="#ef8d46"/>
      <path id="Path_409" data-name="Path 409" d="M546.155,1970.364c.438.047.844.108,1.234.174-.148-.036-.209-.059-.168-.064Z" fill="#ef8d46"/>
      <path id="Path_410" data-name="Path 410" d="M270.6,1959.378l-.164-.031C269.657,1959.476,270,1959.457,270.6,1959.378Z" fill="#ef8d46"/>
      <path id="Path_411" data-name="Path 411" d="M452.8,1966.523l.089-.015-.112-.021Z" fill="#ef8d46"/>
      <path id="Path_412" data-name="Path 412" d="M450.029,1966.677a4.383,4.383,0,0,1,2.75-.19l-.838-1.246Z" fill="#ef8d46"/>
      <path id="Path_413" data-name="Path 413" d="M343.262,1962.005l1.925.442c-2.355.53-4.038.251-2.237.844.312-1.285,7.527.145,7.837-1.154l1.268.321c-.365-.026-.426.05-.787.024,2.462.718,1.874-.886,5.067-.59,1.112.14,1.883.358,1.118.49l2.495-.244c.722.054.537.276-.182.225l3.792.041-.03.038a24,24,0,0,1,2.388-.578c.955.229-.488.123-.248.3l2.11-.243c.841.38-.909.649-2.356.543,1.91,1.411,1.752-.268,5.951.678l-1.987.093c1.248.812,2.8.595,5.024,1.159-.521-.27-4.437-1.372-2.148-1.619a7,7,0,0,0,2.72-.017c-.007.479,1.2.408,2.7.438l-.128.631a7.216,7.216,0,0,0,2.48-.689c1.8.142,2.159.651,2.568,1.086,2.889.229-1.967-.879,1.464-.849a27.274,27.274,0,0,0,6.995-.1c1.676.292-.311.378.285.586l1.516-.445c.365.028.24.18.177.256,1.267-.144.132-.634,2.118-.723.566-.686,4.016,1.212,6.5.531.6.21-.309.377-.137.633a37.706,37.706,0,0,0,5.69-.817l2.33.53c-1.7-.561.531-1.022,2.487-1.4-.6-.26-1.115-.487-1.462-.6l3.1-.193c.368.123.046.326-.473.568l.573-.126c1.092.288.5.628-.307.946l-1.092-.446c-.781.351-1.515.745-1.375,1.126a4.571,4.571,0,0,1,1.02-.124c-.2.1-.336.183-.247.251s.43-.053.942-.192l.666.742.184-.273,4.012.642c2.922-.562,5.488-1.475,10.086-1.52-1.165.455-.29.829-.385,1.436-1.215-.712-3.562.09-5.929-.166,1.235.133.947.411.627.5l4.265-.369c-.122.495.879.421,1.974.684-.783-1.029,3.192-.493,4.931-.7.089.335-.343.65-2.44.463,2.277.859,3.061-1,5.3-.241-.514-.022-.788-.088-1,.067,1.215-.223,4.132.178,3.426.423l-.512-.022c3.4.309,10.369.593,10.927-.191a3.292,3.292,0,0,1-.722,1.112c2.081-.8,4.164-1.6,6.247-2.369-.579.661,1.372,2.44-1.476,2.658a11.97,11.97,0,0,0,3.525.186c-.547-.132-1.316-1.086-.556-1.1a23.806,23.806,0,0,0,3.93,1.315c-.819-.2.171-1.219,1.479-1.1-.215.148.04,1.066-.446,1.149l3.33-.848c-.826.138-.2.88.508,1.22-.325-.225,2.818.189,3.694.139l-1.366-.325c3.672.378,3.736-1.233,7.384-.915-.456.179-1.182,1.226.666,1.479a17.6,17.6,0,0,1,7.206-2.387l.6.339,2.5-.146a69.666,69.666,0,0,1-8.46,2.445c1.361.326.359.375,2.424.484.708.323-1.154.346-1.762.324l4.788.485c-.17-.612,3.716-.359,3.569-.862l-5.26.273c-.169-.617,3.138-1.495,6.534-1.148.848.293-.725,1-.669,1.2a12.224,12.224,0,0,1,3.56,0l-1.466.208c1.876.352,3.148-.545,5.381.172.782.095,2.288.9,2.45.576-1.23-.739-1.324-2.783-.432-3.2.272.068,4.076.957,4.947,1.341,1.254.6-2.036,1.046-.97,1.561.06-.15.789-.286,1.092-.325.815.191-.379.448,1.419.509.344-.541,3.641.315.885-.412a36.727,36.727,0,0,1,3.914.39c-.625-.413,1.948-1.059,3.717-1.055-.116.129.264.342.448.441,3.587.357,5.495.761,8.844,1.047.3.152,1.9.436,1.192.6a7.917,7.917,0,0,1,1.982-.113c1.959.613-2.309-.13-.833.532.157-.294,2.707-.172,4.194-.221-.412-.485-3.388-.411-4.879-.336.05-.645,2.673-1.073,6.2-1,2.794.127,1.168.513,1.659.475,5.212.611,4.548-.589,8.842.277,1.685.539.007.731.362,1.032-2.278-.076-3.454-.566-4.99-.7l1.872.359a13.319,13.319,0,0,1-3.066-.181c1.41.466,8.816.9,12.81,1.625.727-.043,1.974-.033,1.4-.231l-1.279-.085c-1.141-.4,2.437-.128.838-.43a31.1,31.1,0,0,1,6.063.331l.412.42a6.543,6.543,0,0,0-2.236-.353c1.02-.05,3.634.9,4.783.542l-1.657-.441a32.885,32.885,0,0,1,6.008.286c-.929-.468-.495-.021-1.962-.623,1.256.667-5.442-.713-3.4.1-1.5-.672-2.666-.518-4.651-1.192.05.133.694.325-1.088.051a2.76,2.76,0,0,1-.4.066l-.12-.024.1.027c-.079.01-.087.013.037.009a3.837,3.837,0,0,1,.891.3c-.919.186-3.763-.143-4.741-.095-1.055-.181.46-.1-.105-.306l-1.461.073c-.113-.308-2.771-.817-.253-.7l-2.249-.277a20.14,20.14,0,0,0-4.265-.578c-1.056-.183-2.717.06-1.768-.087l-3.552-.179-.025-.083c-3.483-.413-7.227-.213-11.163-1.2a31.1,31.1,0,0,1-4.362-.321l-.358-.34c-1.517-.037-4.5-.748-5.179-.488-1.556-1.013-7.309-.871-9.951-1.252l-.135.416c-1.825-.186-3.587-.215-5.869-.236l.11.4c-1.98.156-5.007-.71-8.106-.9a3.234,3.234,0,0,1,1.553.1c-3.633-1.183-7.85.052-11.156-.864a5.508,5.508,0,0,1-2.027-.16,1.084,1.084,0,0,0,.209-.006l-.343-.031c-.364-.1-.739-.21-1.146-.307a6.961,6.961,0,0,0,.961.294c-.645-.041-1.626-.065-2.592-.035l-.377-.473-.223,0c-.93-.23-.771.156-.291.524a8.928,8.928,0,0,0-1.286.179c-.716-.77-2.532.069-3.523-.772-.672.33-4.839-.051-5.4.714-.026-.106-.306-.175.212-.146a10.12,10.12,0,0,0-3.1-.166l-.417-.609-2.382.622c-1.395-.449-1.971-.7-.535-1.049-3.442.462-2.775.083-5.709.591l.165-.371c-1.035-.05-2.718.361-3.323.008-2.269-.867-11.434-.814-17.335-1.807,1.089,1.212-2.733-.669-3.016.211-.332-.291-1.151-.49-.177-.675-3.045.1-4.531-.683-6.663-.042-.333-.294.669-.365.369-.545a2.46,2.46,0,0,1-1.282.005c-.3-.18.455-.206.941-.3-3.1-.128-3.455.711-3.72,1.491a4.558,4.558,0,0,0-3.494.029c-.534-.286-1.432-.6.5-.6-1.081-.09-6.6-.7-6.735-.068a4.61,4.61,0,0,0-1.8-.06c-2.427-.155-2.638-.223-5.026-.277l.657.136c-.977.723-1.991.079-3.918.092l.058-.077c-4.385-.741-1.914.186-6.238-.631l.217.488c-.449,1.012-3.829-.77-6.37-.481l.9.311c-1.393.294-3.8-1.56-5.179-1.737-.3-.1.483-.127.907-.175-3.6-.735-.495.606-3.2.653-.486-.353.675-.831-1.142-.958-.9-.3-5.318.9-7.777.173.538.276,1.072.553-.191.7-1.927.024-5.168-1.153-6.934-.4-.242-.077-.332-.147-.34-.211-1.479.164-4.793.2-5.693.611-1.309-1.641-9.169.5-9.092-.964l-4.528-.039.123-.145a11.727,11.727,0,0,0-4.95.483c-.666-.113-.174-.236-.117-.31a21.91,21.91,0,0,0-8.2.294l-.357-.466c-.966.23-6.1-.825-10.255-.36.041-.05.129-.135.46-.193-4.675.437-11.151-1.367-12.887.2l-3.085.352c3.981.164-.6.664,1.031.94-1.567.067-4.041-.517-2.116-.572l.3.081c.719-.794-4.944-.338-4.83-.873-7.838-.05-15.477-.434-22.821-.444l.844.545-2.561-.017c-.672-.123-.9-.418.926-.411a6.1,6.1,0,0,0-3.118.4c-3.578-.191,1.4-.637.3-.643l-1.49.055.336.059a11.133,11.133,0,0,1-3.512.449c-1.39-.094-.713-.316-1.26-.331,0-.037-.182-.052-.839-.007l-3.228-.011,1.292.39c-1.43.208-3.034,0-1.544.442-2.188-.673-12.037-.067-13.381-.251a48.717,48.717,0,0,1-6.426.365c.61.055.98.434-1.132.431.759-.8-3.873-.248-5.591-.733,1.533.3-6,.275-3.6.682-1.763.006-.113-.261-1.454-.374-4.187.446-9.249.161-14.428.573-.077.078.8.148-.312.317l-2.751-.215c-1.021.1-.924.455-2.8.319.267.042.665.108-.02.166-2.542.031-5.1.224-7.684.4-2.577.2-5.173.359-7.766.639l-7.787.744-7.735.891c1.392-.141.464-.047-.587.151.686-.109-.009.054.13.059l-4.272.662c-.379.119-1.535.232-2.614.534l-2.345.583,1.329-.326c-1.764.449,2.488-.54,2.252-.347,2.01-.329,5.317-.71,8.629-1.116.736-.041-.621.106-.224.1.835-.137,1.85-.256,3.737-.405l-.211.038c2.642-.289,4.544-.367,6.523-.472,1.981-.087,4.039-.221,7.027-.305l-.452-.119c1.284-.04,1.557-.006,2.16.005,1.459-.286-3.6.146-2.278-.146,1.721.216,9.046-.442,10.216-.087,1.975-.049-.589-.187,1.385-.24l.529.1.492-.161a4.45,4.45,0,0,1,2.009.215c-.315,0-.892.05-1.228.066,1.685.1,4.73-.163,5.309-.132l-1.9-.029c5.381-.308,11.971-.144,17.169-.561l-.4-.11c3.973-.28,3.189.1,7.554-.044l-.158.032a22.11,22.11,0,0,1,3.233-.208c-1.1.162,2.08.284.636.466,4.309-.29,2.13-.23,4.973-.748l.66.229a11.516,11.516,0,0,1,3.23-.392c-1.788.208,1.4.36-.606.63,4.581.539,6.793-.544,8.9.255,2.1-.7-3.963-.385-2.787-.533-.987-.22,1.732-.52,3.17-.459,1.463,0,2.49.909,6.168.93-.366-.007-.391.048-.756.041,1.377.2,2.7-.23,4.385.092.947-.445,2.192.046,2.466-.536l-3.374.113c1.912-.132,3.708-.814,6.859-.47a10.242,10.242,0,0,1-1.829.356c.921.18,1.775-.107,2.73.079-.274.6-4.1.1-6.151.531.988.257,3.877-.39,2.846.237,1.482-.8,3.623.138,6.116-.45l-.166.362a12.08,12.08,0,0,1,1.937-.192l-1.316.455c2.019-.374,3.885.424,5.819.237-4.048-.06-.9-.467-2.615-.765,5-.434,2.864,1.026,8.456.945-.758.04-2.839-.279-1.654-.437a18.018,18.018,0,0,1,3.118.482c3.7,0-.564-.414,1.016-.618,1.255.5,1.821-.154,3.447-.277l.006.4c4.218.35,1.131-.82,4.928-.433l-1.615.535,1.984-.106-.416.458a17.114,17.114,0,0,1,4.94-.021c-.486-.3.288-.75,2.159-.73,1.271.277-.721.38,1.93.387a2.877,2.877,0,0,1-2.411.149c-.12.134-.594.251-.718.383a23.566,23.566,0,0,0,4.409.175,6.173,6.173,0,0,1-1.036-.128l3.852-.49c.6.176.12.294-.358.408.779-.026,1.322-.209,2.466-.217-.3.342-.239.706-1.861.825l3.667-.288c.241.159,1.869.473,1.391.59,2.024.274,4.992-.562,7.675-.2a3.142,3.142,0,0,1,1-.157c2.525.159,4.753.686,7.762.274l1.682.714c2.35-.077-2.279-.9,1.635-1.035,2.773-.13,1.017.6,1.982.813a13.537,13.537,0,0,1,6.322-.265C344.706,1962.106,344.049,1961.983,343.262,1962.005Zm28.945.758c-.564.079-1.693.345-2.093.047C370.773,1962.289,371.257,1962.569,372.207,1962.763Zm44.033.8a3.37,3.37,0,0,1-1.784-.189A6.768,6.768,0,0,1,416.24,1963.559Zm122.576,6.2-.061.009C537.521,1969.512,537.958,1969.609,538.816,1969.763Zm2.573.429c.265-.015.251-.061.146-.119a5.04,5.04,0,0,1-1.429-.1A2.667,2.667,0,0,0,541.389,1970.192Zm-279-13.164.507.085C261.75,1957.221,262.07,1957.13,262.386,1957.028Z" fill="#ef8d46"/>
      <path id="Path_414" data-name="Path 414" d="M411.22,1963.978a.45.45,0,0,1-.227-.273C410.769,1963.775,410.76,1963.868,411.22,1963.978Z" fill="#ef8d46"/>
      <path id="Path_415" data-name="Path 415" d="M325.259,1961.673l-.088-.008a.2.2,0,0,0-.09.077Z" fill="#ef8d46"/>
      <path id="Path_416" data-name="Path 416" d="M500.994,1969.658a4.138,4.138,0,0,1-1.013-.282C499.945,1969.472,500.181,1969.573,500.994,1969.658Z" fill="#ef8d46"/>
      <path id="Path_417" data-name="Path 417" d="M555.145,1971.285l-1.664-.123a8.533,8.533,0,0,1,1.481.272C554.932,1971.362,554.627,1971.228,555.145,1971.285Z" fill="#ef8d46"/>
      <path id="Path_418" data-name="Path 418" d="M569.317,1974.7c.245,0,.513.056.755.053l-.052-.12C568.989,1974.516,568.258,1974.525,569.317,1974.7Z" fill="#ef8d46"/>
      <path id="Path_419" data-name="Path 419" d="M556.574,1972.418c.105.253,1.151.3,2.315.4l-.2-.025C559.062,1972.508,557.815,1972.46,556.574,1972.418Z" fill="#ef8d46"/>
      <path id="Path_420" data-name="Path 420" d="M559.159,1972.839c.358.033.724.071,1.072.125C560.381,1972.852,559.8,1972.884,559.159,1972.839Z" fill="#ef8d46"/>
      <path id="Path_421" data-name="Path 421" d="M544.687,1970.394c.544.131.38-.3.68-.152C546.016,1969.978,541.657,1970.219,544.687,1970.394Z" fill="#ef8d46"/>
      <path id="Path_422" data-name="Path 422" d="M557.426,1973.306l-.384-.339-.675.159Z" fill="#ef8d46"/>
      <path id="Path_423" data-name="Path 423" d="M548.289,1972.1l1.845.283c-.022-.055.217-.061.508-.053A13.964,13.964,0,0,0,548.289,1972.1Z" fill="#ef8d46"/>
      <path id="Path_424" data-name="Path 424" d="M550.642,1972.329a11.526,11.526,0,0,0,1.5.108C551.818,1972.405,551.124,1972.342,550.642,1972.329Z" fill="#ef8d46"/>
      <path id="Path_425" data-name="Path 425" d="M554.884,1973.109l-.542-.119-1.307-.158Z" fill="#ef8d46"/>
      <path id="Path_426" data-name="Path 426" d="M528.35,1970.027l-2.035-.09c-.218.106.327.236,1.085.257C527.894,1970.153,528.65,1970.177,528.35,1970.027Z" fill="#ef8d46"/>
      <path id="Path_427" data-name="Path 427" d="M534.385,1971.575a2.56,2.56,0,0,1-.869-.348l-.1.431Z" fill="#ef8d46"/>
      <path id="Path_428" data-name="Path 428" d="M528.467,1971.147c-.214.106-2.974.1-.4.3C528.281,1971.338,530.319,1971.416,528.467,1971.147Z" fill="#ef8d46"/>
      <path id="Path_429" data-name="Path 429" d="M497.971,1968l.516.033-.007-.862Z" fill="#ef8d46"/>
      <path id="Path_430" data-name="Path 430" d="M470.869,1968.259c2.388.38.61-.537,2.763-.115.58-.181-1.76-.345-1.168-.5C471,1967.782,470.244,1967.6,470.869,1968.259Z" fill="#ef8d46"/>
      <path id="Path_431" data-name="Path 431" d="M472.464,1967.648c.235-.021.485-.049.751-.091A4.726,4.726,0,0,0,472.464,1967.648Z" fill="#ef8d46"/>
      <path id="Path_432" data-name="Path 432" d="M167.918,1963.088l-1.508.378.974-.237Z" fill="#ef8d46"/>
      <path id="Path_433" data-name="Path 433" d="M165.032,1963.836l-.356.081-.9.231Z" fill="#ef8d46"/>
      <path id="Path_434" data-name="Path 434" d="M376.458,1964.225l.124-.15a2.665,2.665,0,0,0-1.32-.258Z" fill="#ef8d46"/>
      <path id="Path_435" data-name="Path 435" d="M355.481,1962.932l.361.026-.656-.595Z" fill="#ef8d46"/>
      <path id="Path_436" data-name="Path 436" d="M337.838,1963.022c.719.046,1.568-.05,2.29,0C338.557,1963.068,337.663,1962.323,337.838,1963.022Z" fill="#ef8d46"/>
    </g>
    <g id="Group_178" data-name="Group 178" transform="translate(-7.12 57.188)">
      <path id="Path_437" data-name="Path 437" d="M591.988,1990.107l.421.1C591.52,1989.995,592.01,1990.113,591.988,1990.107Z" fill="#ef8d46"/>
      <path id="Path_438" data-name="Path 438" d="M583.19,1988.165l.158.022-1.3-.253Z" fill="#ef8d46"/>
      <path id="Path_439" data-name="Path 439" d="M574.958,1986.354c.761.261,2.987.638,4.447.991l.239.069.673.09C578.534,1987.114,576.209,1986.654,574.958,1986.354Z" fill="#ef8d46"/>
      <path id="Path_440" data-name="Path 440" d="M570.592,1985.248c.265.095-.962-.139,1.028.206l-.184-.046Z" fill="#ef8d46"/>
      <path id="Path_441" data-name="Path 441" d="M571.436,1985.408c.873.16-.565-.143,0,0Z" fill="#ef8d46"/>
      <path id="Path_442" data-name="Path 442" d="M567.4,1984.688l1.158.169c-.235-.073-1.257-.272-.873-.222C566.5,1984.438,566.737,1984.515,567.4,1984.688Z" fill="#ef8d46"/>
      <path id="Path_443" data-name="Path 443" d="M566.292,1984.584l.6.089A2.566,2.566,0,0,0,566.292,1984.584Z" fill="#ef8d46"/>
      <path id="Path_444" data-name="Path 444" d="M568.163,1984.864l-1.272-.191a1.157,1.157,0,0,0,.583.091C567.364,1984.783,567.621,1984.792,568.163,1984.864Z" fill="#ef8d46"/>
      <path id="Path_445" data-name="Path 445" d="M568.875,1985.014c.641.145,1.472.31.309.143C571.389,1985.536,571.078,1985.4,568.875,1985.014Z" fill="#ef8d46"/>
      <path id="Path_446" data-name="Path 446" d="M574.518,1986.362l.852.21.748.128C575.745,1986.636,574.471,1986.32,574.518,1986.362Z" fill="#ef8d46"/>
      <path id="Path_447" data-name="Path 447" d="M560.245,1983.289c-.077.021.373.161.451.219l.857.117A10.459,10.459,0,0,1,560.245,1983.289Z" fill="#ef8d46"/>
      <path id="Path_448" data-name="Path 448" d="M560.7,1983.508l-1.281-.172C560.55,1983.547,560.762,1983.558,560.7,1983.508Z" fill="#ef8d46"/>
      <path id="Path_449" data-name="Path 449" d="M566.061,1984.7l2.107.272-2.511-.342Z" fill="#ef8d46"/>
      <path id="Path_450" data-name="Path 450" d="M555.388,1982.387l.735.047-1.305-.1Z" fill="#ef8d46"/>
      <path id="Path_451" data-name="Path 451" d="M552.163,1981.81c.545.022-.712-.267-.141-.21a19.062,19.062,0,0,0-2.324-.235A15.961,15.961,0,0,1,552.163,1981.81Z" fill="#ef8d46"/>
      <path id="Path_452" data-name="Path 452" d="M548.548,1981.285l1.15.08C549.313,1981.326,548.934,1981.3,548.548,1981.285Z" fill="#ef8d46"/>
      <path id="Path_453" data-name="Path 453" d="M557.25,1982.928a4.5,4.5,0,0,0-.985-.286l.484.194Z" fill="#ef8d46"/>
      <path id="Path_454" data-name="Path 454" d="M556.766,1982.842l-.017-.006-1.08-.2Z" fill="#ef8d46"/>
      <path id="Path_455" data-name="Path 455" d="M557.376,1982.951l-.126-.023A.237.237,0,0,0,557.376,1982.951Z" fill="#ef8d46"/>
      <path id="Path_456" data-name="Path 456" d="M562.738,1984.029c-.756-.085-2.325-.3-.828.04C562.456,1984.1,561.6,1983.9,562.738,1984.029Z" fill="#ef8d46"/>
      <path id="Path_457" data-name="Path 457" d="M557.977,1983.189l1.349.262c-.023-.03-.26-.112.114-.072Z" fill="#ef8d46"/>
      <path id="Path_458" data-name="Path 458" d="M557.31,1983.1l.667.085-.5-.1Z" fill="#ef8d46"/>
      <path id="Path_459" data-name="Path 459" d="M550.858,1981.745c-.594-.036-1.237-.126-1.963-.225.774.139,1.575.268,2.338.382C551.345,1981.889,551.69,1981.869,550.858,1981.745Z" fill="#ef8d46"/>
      <path id="Path_460" data-name="Path 460" d="M553.729,1982.284l-.131-.017C553.676,1982.29,553.74,1982.305,553.729,1982.284Z" fill="#ef8d46"/>
      <path id="Path_461" data-name="Path 461" d="M541.758,1980.468l.111.041.03-.019Z" fill="#ef8d46"/>
      <path id="Path_462" data-name="Path 462" d="M551.359,1981.946a8.1,8.1,0,0,0,1.267.184l-1.393-.228C551.182,1981.91,551.171,1981.919,551.359,1981.946Z" fill="#ef8d46"/>
      <path id="Path_463" data-name="Path 463" d="M546.55,1981.044l1,.219A5.814,5.814,0,0,0,546.55,1981.044Z" fill="#ef8d46"/>
      <path id="Path_464" data-name="Path 464" d="M553.407,1982.2l.087.01C553.307,1982.153,553.329,1982.169,553.407,1982.2Z" fill="#ef8d46"/>
      <path id="Path_465" data-name="Path 465" d="M553.407,1982.2c-.3-.038-.541-.053-.781-.071l.972.137C553.527,1982.246,553.457,1982.221,553.407,1982.2Z" fill="#ef8d46"/>
      <path id="Path_466" data-name="Path 466" d="M539.472,1981.048a8.676,8.676,0,0,1,2.982.292c1.319.084.522-.431-.585-.831-.048.049-.055.1-1.408-.02.46.14,2.957.586,1.809.538a9.4,9.4,0,0,1-2.308-.438c.714.261-2.295-.081-1.94.217l1.571.126C539.618,1980.973,539.044,1980.956,539.472,1981.048Z" fill="#ef8d46"/>
      <path id="Path_467" data-name="Path 467" d="M544.425,1980.9l.555.066c-.627-.114-1.071-.228-1.887-.448a3.692,3.692,0,0,0-1.194-.025l2.718.416Z" fill="#ef8d46"/>
      <path id="Path_468" data-name="Path 468" d="M547.46,1981.327c-.45.06-1.784-.075-.992.179a15.745,15.745,0,0,0,2.128.143c-2.62-.348.762.042-1.118-.305l1.417.176-1.344-.257.059.017h.012l0,0c.111.032.146.047.021.019l-.055-.005a.37.37,0,0,1-.125.029c-.754-.137-.115-.05.125-.029.009-.005.031-.008.034-.014l-.009,0-2.63-.317C545.532,1981.062,546.227,1981.16,547.46,1981.327Z" fill="#ef8d46"/>
      <path id="Path_469" data-name="Path 469" d="M560.484,1984.033c-.079-.022-.075-.028-.08-.036C560.234,1983.98,560.168,1983.978,560.484,1984.033Z" fill="#ef8d46"/>
      <path id="Path_470" data-name="Path 470" d="M559.42,1983.794a6.709,6.709,0,0,1,.971.122c.531.119-.01.045.013.081.376.037,1.312.153.154-.091l-.186-.019a17.335,17.335,0,0,1-2.189-.552A6.87,6.87,0,0,0,559.42,1983.794Z" fill="#ef8d46"/>
      <path id="Path_471" data-name="Path 471" d="M553.367,1982.549l-2.182-.319,1.092.289-.047-.069C553.462,1982.685,553.206,1982.567,553.367,1982.549Z" fill="#ef8d46"/>
      <path id="Path_472" data-name="Path 472" d="M541.518,1980.363l.309-.1-1.289.018Z" fill="#ef8d46"/>
      <path id="Path_473" data-name="Path 473" d="M538.68,1979.962l.123-.116-.76-.032Z" fill="#ef8d46"/>
      <path id="Path_474" data-name="Path 474" d="M377.471,1969.492l-.65.04C377.128,1969.524,377.326,1969.51,377.471,1969.492Z" fill="#ef8d46"/>
      <path id="Path_475" data-name="Path 475" d="M382.151,1969.694l.12-.11C382.051,1969.638,381.961,1969.681,382.151,1969.694Z" fill="#ef8d46"/>
      <path id="Path_476" data-name="Path 476" d="M468.741,1972.064c-.924-.278-1.95-.68-1.856-.426l.27.262A8.487,8.487,0,0,1,468.741,1972.064Z" fill="#ef8d46"/>
      <path id="Path_477" data-name="Path 477" d="M420.575,1970.171l.27.1.65-.208Z" fill="#ef8d46"/>
      <path id="Path_478" data-name="Path 478" d="M419.85,1971.2l-1.231-.243A12.317,12.317,0,0,0,419.85,1971.2Z" fill="#ef8d46"/>
      <path id="Path_479" data-name="Path 479" d="M351.892,1968.835l-.761.22C352.312,1969.091,351.8,1968.951,351.892,1968.835Z" fill="#ef8d46"/>
      <path id="Path_480" data-name="Path 480" d="M509.565,1976.216c-.8-.172-1.441-.282-2.006-.359A5.546,5.546,0,0,0,509.565,1976.216Z" fill="#ef8d46"/>
      <path id="Path_481" data-name="Path 481" d="M379.417,1966.865c-.4.032-.569.078-.559.135C379.267,1966.971,379.5,1966.931,379.417,1966.865Z" fill="#ef8d46"/>
      <path id="Path_482" data-name="Path 482" d="M505.223,1975.576l.423.1c.6.038,1.192.083,1.913.183A8.35,8.35,0,0,0,505.223,1975.576Z" fill="#ef8d46"/>
      <path id="Path_483" data-name="Path 483" d="M259.117,1967.786l-.211-.008C258.886,1967.793,258.98,1967.791,259.117,1967.786Z" fill="#ef8d46"/>
      <path id="Path_484" data-name="Path 484" d="M232.09,1968.766c.266-.034.7-.091,1.1-.145Z" fill="#ef8d46"/>
      <path id="Path_485" data-name="Path 485" d="M527.275,1978.217c.6.078.1,0,0,0Z" fill="#ef8d46"/>
      <path id="Path_486" data-name="Path 486" d="M530.122,1979.279c-.13,0-.231.009-.251.044A.54.54,0,0,1,530.122,1979.279Z" fill="#ef8d46"/>
      <path id="Path_487" data-name="Path 487" d="M499.076,1976.185l-.052-.005C499.2,1976.237,499.17,1976.226,499.076,1976.185Z" fill="#ef8d46"/>
      <path id="Path_488" data-name="Path 488" d="M528.171,1978.425c-.223-.054-.481-.109-.763-.162Z" fill="#ef8d46"/>
      <path id="Path_489" data-name="Path 489" d="M528.059,1978.329l.524.094C528.662,1978.407,528.6,1978.38,528.059,1978.329Z" fill="#ef8d46"/>
      <path id="Path_490" data-name="Path 490" d="M526.434,1978.122c.345.041.667.081.974.141-.117-.028-.165-.045-.133-.046Z" fill="#ef8d46"/>
      <path id="Path_491" data-name="Path 491" d="M308.836,1967.131l-.131-.019C308.093,1967.19,308.361,1967.178,308.836,1967.131Z" fill="#ef8d46"/>
      <path id="Path_492" data-name="Path 492" d="M452.786,1973.368l.07-.006-.089-.016Z" fill="#ef8d46"/>
      <path id="Path_493" data-name="Path 493" d="M450.6,1973.393a4.484,4.484,0,0,1,2.169-.047l-.668-.769Z" fill="#ef8d46"/>
      <path id="Path_494" data-name="Path 494" d="M366.259,1969.111l1.522.286c-1.858.293-3.189.106-1.764.482.242-.768,5.947.169,6.187-.607l1,.207c-.289-.02-.337.025-.622.005,1.947.459,1.478-.511,4-.3.878.1,1.489.236.885.306l1.97-.119c.57.038.425.171-.143.133l3,.055-.023.023c.432-.109,1.408-.265,1.884-.329.755.144-.385.07-.2.177l1.666-.129c.666.235-.716.382-1.859.307,1.514.862,1.383-.147,4.7.453l-1.569.04c.989.5,2.217.378,3.973.736-.412-.169-3.51-.858-1.7-.989a7.574,7.574,0,0,0,2.149.017c0,.287.946.265,2.131.309l-.1.377a6.913,6.913,0,0,0,1.955-.377,2.811,2.811,0,0,1,2.033.688c2.283.177-1.557-.555,1.152-.49a28.275,28.275,0,0,0,5.524.038c1.325.2-.244.223.228.356l1.195-.246c.289.022.191.111.141.156,1-.069.1-.379,1.67-.4.443-.4,3.177.777,5.137.393.471.133-.243.224-.105.379a38.557,38.557,0,0,0,4.491-.43l1.843.343c-1.349-.356.414-.612,1.956-.788-.477-.168-.883-.316-1.157-.391l2.448-.052c.291.081.038.2-.371.331l.452-.063c.863.2.4.387-.238.561l-.864-.29c-.614.2-1.192.417-1.079.648a4.636,4.636,0,0,1,.8-.053c-.161.053-.264.1-.194.146a2.246,2.246,0,0,0,.743-.1l.529.459.144-.16,3.17.462a45.556,45.556,0,0,1,7.956-.738c-.918.253-.225.492-.3.855-.963-.448-2.812-.007-4.682-.2.976.1.75.264.5.309l3.366-.147c-.094.3.7.268,1.562.445-.623-.632,2.517-.241,3.89-.338.071.2-.268.385-1.925.236,1.8.554,2.412-.546,4.185-.059-.406-.02-.622-.064-.789.026.958-.117,3.264.165,2.708.3l-.4-.021c2.688.219,8.191.515,8.626.079a1.9,1.9,0,0,1-.564.65l4.916-1.275c-.453.385,1.1,1.5-1.15,1.567a12.517,12.517,0,0,0,2.783.187c-.433-.091-1.045-.681-.445-.674a23.714,23.714,0,0,0,3.109.873c-.648-.136.128-.728,1.161-.629-.169.084.038.642-.346.681l2.624-.438c-.652.065-.155.525.407.744-.258-.143,2.225.174,2.916.162l-1.08-.224c2.9.306,2.942-.659,5.824-.406-.36.1-.926.716.534.9a15.845,15.845,0,0,1,5.672-1.285l.474.222,1.973-.012c-1.258.335-4.757.987-6.658,1.258a5.791,5.791,0,0,0,1.916.333c.561.206-.909.187-1.389.163,1.261.121,2.522.252,3.781.4-.138-.373,2.927-.1,2.808-.411l-4.146,0c-.136-.375,2.466-.8,5.145-.494.671.2-.566.582-.52.7a13.031,13.031,0,0,1,2.807.1l-1.155.087c1.482.26,2.479-.246,4.245.243.618.078,1.81.6,1.936.41-.975-.476-1.061-1.707-.36-1.935.215.048,3.221.682,3.91.935.993.392-1.6.576-.755.913a2.328,2.328,0,0,1,.859-.166c.643.136-.3.259,1.122.343.268-.317,2.874.284.7-.226,1.393.029,1.464.2,3.09.332-.5-.262,1.53-.594,2.926-.554-.09.075.211.211.356.274,2.836.275,4.337.625,6.977.909.236.1,1.5.332.943.405a8.278,8.278,0,0,1,1.561,0c1.547.434-1.82-.156-.653.291a18.553,18.553,0,0,1,3.3,0c-.328-.308-2.674-.349-3.847-.362.035-.383,2.1-.553,4.877-.4,2.2.164.925.346,1.311.338,4.112.531,3.58-.212,6.97.445,1.332.377.011.44.293.632-1.8-.117-2.726-.449-3.938-.58l1.479.275a13.762,13.762,0,0,1-2.419-.2c1.115.329,6.955.821,10.112,1.347.573-.012,1.555.038,1.1-.1l-1.009-.086c-.9-.273,1.92-.014.657-.237a30.629,30.629,0,0,1,4.772.459l.327.272a6.76,6.76,0,0,0-1.761-.312c.8.014,2.864.7,3.766.537l-1.307-.338a36.578,36.578,0,0,1,4.73.408c-.735-.317-.389-.031-1.549-.45.993.456-4.289-.643-2.671-.073-1.186-.471-2.1-.43-3.668-.923.04.082.549.226-.855-.017a3,3,0,0,1-.317.021l-.095-.019.077.02c-.062,0-.068,0,.029.007a3.861,3.861,0,0,1,.7.22c-.719.057-2.962-.239-3.734-.222-.834-.136.362-.049-.086-.186l-1.151.005c-.092-.188-2.191-.563-.2-.427l-1.776-.224a21.671,21.671,0,0,0-3.365-.478c-.833-.143-2.14-.05-1.394-.108l-2.8-.219-.02-.051c-2.748-.362-5.7-.345-8.8-1.088a32.357,32.357,0,0,1-3.439-.352l-.283-.218a39.534,39.534,0,0,0-4.089-.412c-1.236-.634-5.772-.7-7.858-1l-.1.246c-1.441-.159-2.831-.222-4.631-.294l.089.24c-1.56.041-3.953-.551-6.4-.766a3.346,3.346,0,0,1,1.225.107c-2.871-.823-6.188-.217-8.8-.8a5.761,5.761,0,0,1-1.6-.132,1.123,1.123,0,0,0,.165,0l-.271-.025-.907-.2a7.085,7.085,0,0,0,.761.193c-.509-.035-1.284-.067-2.046-.066l-.3-.291-.176-.006c-.735-.158-.607.077-.227.308a9.119,9.119,0,0,0-1.013.08c-.57-.478-2-.012-2.785-.539-.528.184-3.819-.134-4.258.314-.021-.065-.242-.112.167-.084a10.482,10.482,0,0,0-2.446-.165l-.332-.375-1.877.323c-1.1-.3-1.559-.462-.428-.642-2.714.2-2.189-.017-4.5.217l.127-.219a12.6,12.6,0,0,1-2.621-.077c-1.8-.554-9.034-.638-13.7-1.349.866.748-2.161-.449-2.38.075-.263-.181-.911-.315-.143-.408-2.4.008-3.581-.489-5.26-.141-.265-.183.526-.208.288-.321a2.534,2.534,0,0,1-1.012-.02c-.238-.113.359-.115.742-.163-2.447-.128-2.724.363-2.929.827a4.66,4.66,0,0,0-2.758-.055c-.423-.182-1.133-.391.389-.351-.852-.1-5.211-.5-5.319-.128a4.786,4.786,0,0,0-1.421-.055c-1.918-.119-2.085-.162-3.971-.22l.519.089c-.768.425-1.571.025-3.093.005l.045-.045c-3.466-.506-1.511.084-4.928-.466l.173.3c-.35.6-3.027-.516-5.033-.378l.713.2c-1.1.157-3.006-.987-4.1-1.116-.236-.065.38-.068.715-.091-2.849-.5-.388.356-2.526.339-.385-.221.529-.489-.906-.595-.709-.189-4.2.5-6.143.044.427.17.849.34-.147.42-1.523,0-4.088-.731-5.48-.3-.191-.049-.263-.092-.269-.13a36.878,36.878,0,0,0-4.494.3c-1.04-1-7.241.2-7.184-.678l-3.577-.079.1-.086a11.893,11.893,0,0,0-3.908.264c-.527-.072-.139-.143-.094-.187a22.708,22.708,0,0,0-6.48.135l-.283-.281c-.763.14-4.818-.537-8.1-.294.033-.029.1-.08.363-.112-3.692.226-8.81-.923-10.18.029l-2.437.2c3.146.108-.475.4.816.567-1.238.036-3.194-.32-1.672-.348l.237.049c.567-.475-3.908-.215-3.818-.536-6.193-.027-12.226-.37-18.029-.369l.667.328-2.024-.011c-.531-.073-.711-.251.732-.246a6.227,6.227,0,0,0-2.463.238c-2.827-.115,1.105-.382.239-.386l-1.178.033.265.036a11.441,11.441,0,0,1-2.775.269c-1.1-.057-.563-.19-1-.2,0-.022-.143-.031-.663,0l-2.55-.007,1.02.234c-1.13.125-2.4,0-1.221.265-1.727-.405-9.509-.107-10.57-.207a46.313,46.313,0,0,1-5.078.243c.481.032.772.258-.9.261.6-.48-3.058-.142-4.412-.429,1.209.182-4.744.167-2.847.411-1.393,0-.088-.157-1.146-.231-1.656.121-3.482.136-5.406.149-1.925.029-3.946.095-5.993.21-.063.048.625.086-.251.192l-2.169-.119a8.044,8.044,0,0,1-2.218.2c.21.024.523.063-.018.1-4.014.089-8.111.274-12.214.646l-6.16.465c-2.05.168-4.1.225-6.126.51,1.1-.119.368-.019-.468.089.544-.064-.01.033.1.037l-3.391.392c-.613.107-3.627.473-3.979.53l1.072-.137c-1.425.185,2-.2,1.8-.128,1.594-.218,4.225-.367,6.84-.712.583-.017-.494.059-.181.059.665-.074,1.471-.129,2.967-.193l-.168.021c4.2-.243,6-.293,10.719-.491l-.354-.064c1.013-.045,1.228-.03,1.7-.033,1.157-.193-2.845.145-1.793-.05,1.349.04,7.155-.235,8.073-.042,1.561-.036-.463-.11,1.1-.149l.417.057.391-.1a4.5,4.5,0,0,1,1.584.123c-.249,0-.705.033-.971.044,1.33.055,3.74-.115,4.2-.1l-1.5-.01c2.129-.084,4.493-.146,6.84-.2,2.348-.015,4.677-.042,6.734-.153l-.314-.069c3.142-.161,2.52.059,5.97-.033l-.125.019a23.135,23.135,0,0,1,2.556-.131c-.87.1,1.642.167.5.279a17.925,17.925,0,0,0,3.933-.465l.521.132a10.725,10.725,0,0,1,2.554-.23c-1.414.116,1.1.223-.481.375,3.618.347,5.37-.292,7.032.2,1.66-.41-3.132-.251-2.2-.334-.779-.136,1.371-.3,2.507-.259,1.156.01,1.966.549,4.872.564-.289,0-.309.029-.6.025,1.087.12,2.131-.138,3.465.055.749-.267,1.733.028,1.949-.321l-2.666.067a28.765,28.765,0,0,1,5.421-.281,10.387,10.387,0,0,1-1.445.213c.727.108,1.4-.063,2.157.048-.218.358-3.241.062-4.862.318.781.154,3.064-.233,2.249.143,1.172-.475,2.863.071,4.833-.268l-.131.216a12.434,12.434,0,0,1,1.531-.1l-1.04.264c1.6-.212,3.07.28,4.6.18-3.2-.062-.716-.286-2.067-.476,3.95-.228,2.264.634,6.683.621-.6.019-2.244-.185-1.307-.272a18.564,18.564,0,0,1,2.464.308c2.928.012-.446-.249.8-.368.993.3,1.439-.088,2.724-.158l.006.241c3.333.221.892-.489,3.893-.248l-1.275.318,1.567-.059-.328.274a17.763,17.763,0,0,1,3.9,0c-.384-.183.227-.45,1.7-.433,1.005.176-.569.222,1.526.248a2.949,2.949,0,0,1-1.9.073c-.1.08-.469.149-.567.227a26.134,26.134,0,0,0,3.484.135,6.494,6.494,0,0,1-.819-.085l3.044-.262c.475.111.094.177-.283.242.616-.009,1.044-.114,1.948-.11-.238.2-.187.422-1.469.48l2.9-.142c.191.1,1.478.3,1.1.366,1.6.18,3.943-.291,6.064-.06a3.187,3.187,0,0,1,.787-.089,35.524,35.524,0,0,0,6.134.2l1.331.437c1.857-.035-1.8-.553,1.289-.613,2.191-.064.806.364,1.569.5a14.033,14.033,0,0,1,4.993-.086C367.4,1969.187,366.881,1969.106,366.259,1969.111Zm22.87.732a4.1,4.1,0,0,1-1.654.012C387.994,1969.547,388.378,1969.719,389.129,1969.843Zm34.777,1.091a3.418,3.418,0,0,1-1.409-.149A7.278,7.278,0,0,1,423.906,1970.934Zm96.737,6.631-.048,0C519.621,1977.374,519.966,1977.446,520.643,1977.565Zm2.032.33c.208,0,.2-.03.114-.067a5.364,5.364,0,0,1-1.128-.1A2.77,2.77,0,0,0,522.675,1977.9ZM302.352,1965.72l.4.052C301.848,1965.836,302.1,1965.781,302.352,1965.72Z" fill="#ef8d46"/>
      <path id="Path_495" data-name="Path 495" d="M419.946,1971.084a.312.312,0,0,1-.18-.169C419.589,1970.953,419.582,1971.009,419.946,1971.084Z" fill="#ef8d46"/>
      <path id="Path_496" data-name="Path 496" d="M352.033,1968.794l-.069-.005a.155.155,0,0,0-.072.046Z" fill="#ef8d46"/>
      <path id="Path_497" data-name="Path 497" d="M490.827,1976.378a4.093,4.093,0,0,1-.8-.2C490,1976.24,490.185,1976.306,490.827,1976.378Z" fill="#ef8d46"/>
      <path id="Path_498" data-name="Path 498" d="M533.513,1979.056l-1.31-.148a8.855,8.855,0,0,1,1.167.229C533.347,1979.093,533.1,1979,533.513,1979.056Z" fill="#ef8d46"/>
      <path id="Path_499" data-name="Path 499" d="M544.7,1981.648c.193.008.4.053.595.06l-.043-.074C544.437,1981.527,543.861,1981.505,544.7,1981.648Z" fill="#ef8d46"/>
      <path id="Path_500" data-name="Path 500" d="M534.646,1979.8a5.224,5.224,0,0,0,1.826.325l-.161-.022C536.606,1979.942,535.624,1979.867,534.646,1979.8Z" fill="#ef8d46"/>
      <path id="Path_501" data-name="Path 501" d="M536.685,1980.146c.282.033.57.07.844.115C537.647,1980.2,537.189,1980.2,536.685,1980.146Z" fill="#ef8d46"/>
      <path id="Path_502" data-name="Path 502" d="M525.277,1978.1c.429.093.3-.168.535-.074C526.321,1977.886,522.886,1977.918,525.277,1978.1Z" fill="#ef8d46"/>
      <path id="Path_503" data-name="Path 503" d="M535.325,1980.362l-.3-.219-.531.071Z" fill="#ef8d46"/>
      <path id="Path_504" data-name="Path 504" d="M528.128,1979.244l1.453.252c-.018-.034.17-.027.4-.009A14.678,14.678,0,0,0,528.128,1979.244Z" fill="#ef8d46"/>
      <path id="Path_505" data-name="Path 505" d="M529.98,1979.487a11.793,11.793,0,0,0,1.179.131C530.905,1979.585,530.359,1979.516,529.98,1979.487Z" fill="#ef8d46"/>
      <path id="Path_506" data-name="Path 506" d="M533.322,1980.144l-.427-.1-1.029-.153Z" fill="#ef8d46"/>
      <path id="Path_507" data-name="Path 507" d="M512.4,1977.4l-1.6-.118c-.171.058.26.153.858.189C512.038,1977.457,512.634,1977.495,512.4,1977.4Z" fill="#ef8d46"/>
      <path id="Path_508" data-name="Path 508" d="M517.164,1978.517a2.539,2.539,0,0,1-.687-.237l-.078.256Z" fill="#ef8d46"/>
      <path id="Path_509" data-name="Path 509" d="M512.5,1978.073c-.167.057-2.342-.033-.315.167C512.351,1978.182,513.959,1978.293,512.5,1978.073Z" fill="#ef8d46"/>
      <path id="Path_510" data-name="Path 510" d="M488.432,1975.3l.408.034-.01-.518Z" fill="#ef8d46"/>
      <path id="Path_511" data-name="Path 511" d="M467.054,1974.8c1.888.271.478-.311,2.181-.02.456-.1-1.392-.238-.925-.319C467.152,1974.513,466.557,1974.391,467.054,1974.8Z" fill="#ef8d46"/>
      <path id="Path_512" data-name="Path 512" d="M468.31,1974.458c.185-.008.382-.021.592-.041A4.79,4.79,0,0,0,468.31,1974.458Z" fill="#ef8d46"/>
      <path id="Path_513" data-name="Path 513" d="M227.635,1969.331l-1.215.161.785-.1Z" fill="#ef8d46"/>
      <path id="Path_514" data-name="Path 514" d="M225.3,1969.654l-.287.033-.728.1Z" fill="#ef8d46"/>
      <path id="Path_515" data-name="Path 515" d="M392.492,1970.774l.1-.089a2.722,2.722,0,0,0-1.044-.177Z" fill="#ef8d46"/>
      <path id="Path_516" data-name="Path 516" d="M375.915,1969.8l.285.019-.521-.364Z" fill="#ef8d46"/>
      <path id="Path_517" data-name="Path 517" d="M361.977,1969.666c.568.033,1.239-.027,1.809.014C362.545,1969.693,361.837,1969.248,361.977,1969.666Z" fill="#ef8d46"/>
    </g>
  </g>
</svg>
